{
.appVersion = "3260";
.formatVersion = 3;
DisplayStrings = (
imperial,
"OHamburgerfontsiv
trtoatu",
"abcdefghijklmnopqrstuvwxy
ABCDEFGHIJKLMNOPQ
RSTUVWXYZ´́áàéè
1234567890
teaches  forthieth
91929394959697989909
81828384858687889808",
a,
c,
e,
B,
F,
n,
".",
A,
u,
y,
x,
w
);
customParameters = (
{
name = vendorID;
value = "Toni Melian";
},
{
name = panose;
value = (
0,
0,
0,
0,
0,
0,
0,
0,
0,
0
);
},
{
name = unicodeRanges;
value = (
0
);
},
{
name = fsType;
value = (
);
},
{
name = glyphOrder;
value = (
.notdef,
GID1,
GID2,
space,
GID4,
GID5,
GID6,
GID7,
GID8,
GID9,
GID10,
GID11,
GID12,
GID13,
GID14,
GID15,
GID16,
GID17,
GID18,
GID19,
GID20,
GID21,
GID22,
GID23,
GID24,
GID25,
GID26,
GID27,
GID28,
GID29,
GID30,
GID31,
GID32,
GID33,
GID34,
GID35,
A,
B,
C,
D,
E,
F,
G,
H,
I,
J,
K,
L,
M,
N,
O,
P,
Q,
R,
S,
T,
U,
V,
W,
X,
Y,
Z,
GID62,
GID63,
GID64,
GID65,
GID66,
GID67,
a,
b,
c,
d,
e,
f,
g,
h,
i,
j,
k,
l,
m,
n,
o,
p,
q,
r,
s,
t,
u,
v,
w,
x,
y,
z,
GID94,
GID95,
GID96,
GID97,
GID98,
GID99,
GID100,
GID101,
GID102,
GID103,
GID104,
GID105,
GID106,
GID107,
GID108,
GID109,
GID110,
GID111,
GID112,
GID113,
GID114,
GID115,
GID116,
GID117,
GID118,
GID119,
GID120,
GID121,
GID122,
GID123,
GID124,
GID125,
GID126,
GID127,
GID128,
GID129,
GID130,
GID131,
GID132,
GID133,
GID134,
GID135,
GID136,
GID137,
GID138,
GID139,
GID140,
GID141,
GID142,
GID143,
GID144,
GID145,
GID146,
GID147,
GID148,
GID149,
GID150,
GID151,
GID152,
GID153,
GID154,
GID155,
GID156,
GID157,
GID158,
GID159,
GID160,
GID161,
GID162,
GID163,
GID164,
GID165,
GID166,
GID167,
GID168,
GID169,
GID170,
GID171,
uni00A0,
GID173,
GID174,
GID175,
GID176,
GID177,
GID178,
GID179,
GID180,
GID181,
GID182,
GID183,
GID184,
GID185,
GID186,
GID187,
GID188,
GID189,
GID190,
GID191,
GID192,
GID193,
GID194,
GID195,
GID196,
GID197,
GID198,
GID199,
GID200,
GID201,
GID202,
GID203,
GID204,
GID205,
GID206,
GID207,
GID208,
GID209,
GID210,
GID211,
GID212,
GID213,
GID214,
GID215,
GID216,
GID217,
GID218,
GID219,
GID220,
GID221,
GID222,
GID223,
GID224,

glyphs = (
{
glyphname = A;
lastChange = "2025-02-16 18:05:43 +0000";
layers = (
{
anchors = (
{
name = bottom;
pos = (348,0);
},
{
name = ogonek;
pos = (626,10);
},
{
name = top;
pos = (348,616);
}
);
background = {
shapes = (
{
closed = 1;
nodes = (
(526,7,l),
(530,0,l),
(599,40,l),
(357,624,l),
(353,631,l),
(284,591,l),
(43,6,l),
(47,-1,l),
(116,39,l),
(202,246,l),
(427,246,l)
);
},
{
closed = 1;
nodes = (
(314,519,l),
(408,293,l),
(221,293,l)
);
}
);
};
layerId = m01;
shapes = (
{
closed = 1;
nodes = (
(492,2,o),
(611,2,o),
(680,0,c),
(680,23,l),
(620,23,o),
(588,68,o),
(556,146,cs),
(353,631,l),
(307,569,l),
(146,146,ls),
(114,68,o),
(75,23,o),
(15,23,c),
(15,0,l),
(84,2,o),
(176,2,o),
(245,0,c),
(245,23,l),
(186,23,o),
(152,43,o),
(172,109,c),
(229,258,l),
(422,258,l),
(483,110,l),
(506,43,o),
(483,23,o),
(423,23,c),
(423,0,l)
);
},
{
closed = 1;
nodes = (
(321,502,l),
(406,298,l),
(244,298,l)
);
}
);
width = 695;
}
);
note = A;
unicode = 65;
},
{
glyphname = B;
lastChange = "2025-02-16 15:09:55 +0000";
layers = (
{
layerId = m01;
shapes = (
{
closed = 1;
nodes = (
(298,0,ls),
(449,0,o),
(519,98,o),
(519,183,cs),
(519,266,o),
(458,318,o),
(364,339,c),
(432,366,o),
(479,414,o),
(479,474,cs),
(479,559,o),
(416,616,o),
(309,616,cs),
(248,616,o),
(187,615,o),
(126,615,c),
(97,615,o),
(68,616,o),
(39,616,c),
(39,593,l),
(101,593,o),
(107,567,o),
(107,505,cs),
(107,111,ls),
(107,49,o),
(101,23,o),
(39,23,c),
(39,0,l)
);
},
{
closed = 1;
nodes = (
(180,309,l),
(243,309,ls),
(358,309,o),
(428,243,o),
(428,180,cs),
(428,105,o),
(396,40,o),
(283,40,cs),
(196,40,o),
(180,50,o),
(180,118,cs)
);
},
{
closed = 1;
nodes = (
(180,576,l),
(252,576,ls),
(368,576,o),
(390,520,o),
(390,465,cs),
(390,402,o),
(342,348,o),
(208,348,cs),
(207,348,l),
(180,348,l)
);
},
{
closed = 1;
nodes = (
);
}
);
width = 565;
}
);
note = B;
unicode = 66;
},
{
glyphname = C;
lastChange = "2025-02-16 19:56:51 +0000";
layers = (
{
anchors = (
{
name = bottom;
pos = (395,0);
},
{
name = top;
pos = (341,616);
}
);
background = {
shapes = (
{
closed = 1;
nodes = (
(259,578,o),
(303,586,o),
(354,586,cs),
(404,586,o),
(447,581,o),
(493,570,c),
(562,610,l),
(558,617,l),
(513,628,o),
(469,633,o),
(419,633,cs),
(353,633,o),
(296,619,o),
(245,590,cs),
(176,550,ls),
(99,505,o),
(53,409,o),
(53,293,cs),
(53,101,o),
(173,-20,o),
(362,-20,cs),
(412,-20,o),
(450,-14,o),
(501,1,c),
(571,41,l),
(567,47,l),
(511,32,o),
(477,27,o),
(427,27,cs),
(305,27,o),
(230,65,o),
(165,159,c),
(136,215,o),
(126,257,o),
(126,326,cs),
(126,425,o),
(164,519,o),
(219,562,c)
);
}
);
};
layerId = m01;
shapes = (
{
closed = 1;
nodes = (
(604,408,l),
(604,526,o),
(509,588,o),
(405,589,cs),
(284,590,o),
(151,506,o),
(151,324,c),
(153,128,o),
(295,31,o),
(419,34,cs),
(517,31,o),
(604,92,o),
(604,211,c),
(628,211,l),
(626,166,o),
(626,120,o),
(628,75,c),
(577,28,o),
(475,-6,o),
(389,-6,cs),
(205,-6,o),
(54,121,o),
(54,308,cs),
(54,492,o),
(207,626,o),
(390,626,cs),
(489,626,o),
(581,592,o),
(628,559,c),
(626,509,o),
(626,458,o),
(628,408,c)
);
}
);
width = 682;
}
);
note = C;
unicode = 67;
},
{
glyphname = D;
lastChange = "2025-02-16 15:09:55 +0000";
layers = (
{
annotations = (
{
pos = (-17.058,659.394);
type = Plus;
}
);
background = {
shapes = (
{
closed = 1;
nodes = (
(632,494,ls),
(581,584,o),
(497,618,o),
(331,618,cs),
(253,618,o),
(229,618,o),
(176,617,c),
(107,577,l),
(107,8,l),
(111,1,l),
(139,0,o),
(173,0,o),
(202,0,cs),
(370,0,o),
(414,7,o),
(473,41,cs),
(542,81,ls),
(628,130,o),
(672,220,o),
(672,344,cs),
(672,398,o),
(662,437,o),
(636,487,cs)
);
},
{
closed = 1;
nodes = (
(442,50,o),
(414,47,o),
(268,47,cs),
(243,47,o),
(198,47,o),
(186,48,cs),
(180,48,l),
(180,571,l),
(190,571,o),
(215,571,o),
(265,571,cs),
(432,571,o),
(503,542,o),
(565,451,c),
(590,400,o),
(599,365,o),
(599,311,cs),
(599,200,o),
(567,123,o),
(499,69,c)
);
}
);
};
layerId = m01;
shapes = (
{
closed = 1;
nodes = (
(107,45,o),
(94,23,o),
(39,23,c),
(39,0,l),
(111,0,ls),
(166,0,o),
(221,-3,o),
(323,-4,cs),
(513,-2,o),
(668,135,o),
(668,327,cs),
(668,498,o),
(537,619,o),
(350,619,cs),
(281,618,o),
(213,617,o),
(144,616,c),
(109,616,o),
(74,616,o),
(39,616,c),
(39,593,l),
(93,593,o),
(107,571,o),
(107,517,cs),
(107,100,ls)
);
},
{
closed = 1;
nodes = (
(180,576,l),
(334,576,ls),
(487,576,o),
(575,462,o),
(575,298,cs),
(575,146,o),
(497,40,o),
(292,40,c),
(193,40,o),
(180,49,o),
(180,118,cs)
);
}
);
width = 722;
}
);
note = D;
unicode = 68;
},
{
glyphname = E;
lastChange = "2025-02-16 18:07:04 +0000";
layers = (
{
anchors = (
{
name = bottom;
pos = (271,0);
},
{
name = ogonek;
pos = (488,10);
},
{
name = top;
pos = (271,616);
},
{
name = topleft;
pos = (20,616);
}
);
annotations = (
{
pos = (468.286,619.226);
type = Plus;
}
);
background = {
shapes = (
{
closed = 1;
nodes = (
(107,7,l),
(111,0,l),
(403,0,l),
(472,40,l),
(468,47,l),
(180,47,l),
(180,300,l),
(393,300,l),
(462,340,l),
(458,347,l),
(180,347,l),
(180,569,l),
(404,569,l),
(473,609,l),
(469,616,l),
(176,616,l),
(107,576,l),
(107,307,l),
(107,307,l)
);
}
);
};
layerId = m01;
shapes = (
{
closed = 1;
nodes = (
(39,593,l),
(101,593,o),
(107,567,o),
(107,505,cs),
(107,111,ls),
(107,49,o),
(101,23,o),
(39,23,c),
(39,0,l),
(65,0,o),
(91,1,o),
(117,1,cs),
(204,1,o),
(291,0,o),
(378,0,cs),
(420,0,o),
(462,-1,o),
(504,-1,c),
(503,63,o),
(503,90,o),
(504,157,c),
(481,157,l),
(481,87,o),
(446,40,o),
(349,40,cs),
(312,40,o),
(281,40,o),
(257,42,cs),
(227,44,o),
(205,47,o),
(193,63,cs),
(183,75,o),
(180,93,o),
(180,118,cs),
(180,296,l),
(309,296,ls),
(363,296,o),
(385,282,o),
(385,228,c),
(408,228,l),
(406,286,o),
(406,344,o),
(408,402,c),
(385,402,l),
(385,348,o),
(363,334,o),
(309,334,cs),
(180,334,l),
(180,576,l),
(208,576,o),
(235,577,o),
(263,577,cs),
(287,577,o),
(358,578,o),
(386,573,cs),
(432,566,o),
(455,541,o),
(455,485,c),
(478,485,l),
(477,529,o),
(477,574,o),
(478,618,c),
(447,617,o),
(417,616,o),
(386,616,cs),
(304,616,o),
(222,615,o),
(141,615,cs),
(93,615,o),
(73,616,o),
(39,616,c)
);
}
);
width = 542;
}
);
note = E;
unicode = 69;
},
{
glyphname = F;
lastChange = "2025-02-16 20:33:18 +0000";
layers = (
{
background = {
shapes = (
{
closed = 1;
nodes = (
(176,616,l),
(107,576,l),
(107,7,l),
(111,0,l),
(180,40,l),
(180,300,l),
(393,300,l),
(462,340,l),
(458,347,l),
(383,347,l),
(180,347,l),
(180,569,l),
(393,569,l),
(462,609,l),
(458,616,l)
);
}
);
};
layerId = m01;
shapes = (
{
closed = 1;
nodes = (
(108,49,o),
(99,23,o),
(39,23,c),
(39,0,l),
(274,0,l),
(274,23,l),
(200,23,o),
(181,35,o),
(180,111,cs),
(180,291,l),
(309,291,ls),
(363,291,o),
(385,277,o),
(385,223,c),
(408,223,l),
(406,281,o),
(406,339,o),
(408,397,c),
(385,397,l),
(385,343,o),
(363,329,o),
(309,329,cs),
(180,329,l),
(180,576,l),
(263,577,ls),
(287,577,o),
(358,578,o),
(386,573,cs),
(432,566,o),
(455,541,o),
(455,485,c),
(478,485,l),
(477,529,o),
(477,574,o),
(478,618,c),
(386,616,l),
(141,615,l),
(39,616,l),
(39,593,l),
(101,593,o),
(107,567,o),
(107,505,cs),
(107,108,ls)
);
}
);
width = 493;
}
);
note = F;
unicode = 70;
},
{
glyphname = G;
lastChange = "2025-02-16 20:38:13 +0000";
layers = (
{
background = {
shapes = (
{
closed = 1;
nodes = (
(512,32,l),
(487,29,o),
(465,27,o),
(434,27,cs),
(295,27,o),
(210,67,o),
(137,166,c),
(108,228,o),
(98,271,o),
(98,331,cs),
(98,422,o),
(136,513,o),
(191,553,cs),
(217,573,o),
(287,586,o),
(360,586,cs),
(414,586,o),
(461,581,o),
(515,570,c),
(584,610,l),
(580,617,l),
(527,628,o),
(480,633,o),
(425,633,cs),
(349,633,o),
(276,617,o),
(228,589,cs),
(159,549,ls),
(73,500,o),
(25,410,o),
(25,298,cs),
(25,101,o),
(156,-20,o),
(369,-20,cs),
(429,-20,o),
(467,-15,o),
(516,0,c),
(585,40,l),
(585,278,l),
(581,285,l),
(512,245,l)
);
}
);
};
layerId = m01;
shapes = (
{
closed = 1;
nodes = (
(590,441,l),
(590,547,o),
(492,587,o),
(394,587,cs),
(242,587,o),
(137,488,o),
(137,324,cs),
(139,149,o),
(256,34,o),
(388,34,cs),
(462,34,o),
(543,65,o),
(543,79,c),
(543,176,ls),
(543,248,o),
(534,264,o),
(462,264,c),
(462,287,l),
(671,287,l),
(671,264,l),
(626,264,o),
(616,233,o),
(616,176,cs),
(616,48,l),
(556,5,o),
(454,-6,o),
(375,-6,cs),
(191,-6,o),
(40,121,o),
(40,308,cs),
(40,492,o),
(193,626,o),
(376,626,cs),
(475,626,o),
(560,610,o),
(614,592,c),
(614,441,l)
);
}
);
width = 706;
}
);
note = G;
unicode = 71;
},
{
glyphname = H;
lastChange = "2025-02-16 15:09:55 +0000";
layers = (
{
layerId = m01;
shapes = (
{
closed = 1;
nodes = (
(255,1,l),
(255,23,l),
(188,23,o),
(180,43,o),
(180,111,cs),
(180,303,l),
(595,303,l),
(595,111,ls),
(595,43,o),
(587,23,o),
(520,23,c),
(520,1,l),
(743,1,l),
(743,23,l),
(676,23,o),
(668,43,o),
(668,111,cs),
(668,505,ls),
(668,573,o),
(676,593,o),
(743,593,c),
(743,616,l),
(520,616,l),
(520,593,l),
(587,593,o),
(595,573,o),
(595,505,cs),
(595,351,l),
(180,351,l),
(180,505,ls),
(180,573,o),
(188,593,o),
(255,593,c),
(255,616,l),
(32,616,l),
(32,593,l),
(99,593,o),
(107,573,o),
(107,505,cs),
(107,111,ls),
(107,43,o),
(99,23,o),
(32,23,c),
(32,1,l)
);
}
);
width = 775;
}
);
note = H;
unicode = 72;
},
{
glyphname = I;
lastChange = "2025-02-16 18:07:12 +0000";
layers = (
{
anchors = (
{
name = bottom;
pos = (144,0);
},
{
name = ogonek;
pos = (258,10);
},
{
name = top;
pos = (144,616);
},
{
name = topleft;
pos = (20,616);
}
);
layerId = m01;
shapes = (
{
closed = 1;
nodes = (
(39,593,l),
(101,586,o),
(107,567,o),
(107,505,cs),
(107,111,ls),
(107,49,o),
(101,30,o),
(39,23,c),
(39,0,l),
(248,0,l),
(248,23,l),
(186,30,o),
(180,49,o),
(180,111,cs),
(180,505,ls),
(180,567,o),
(186,586,o),
(248,593,c),
(248,616,l),
(39,616,l)
);
}
);
width = 287;
}
);
note = I;
unicode = 73;
},
{
glyphname = J;
lastChange = "2025-02-16 15:09:55 +0000";
layers = (
{
background = {
shapes = (
{
closed = 1;
nodes = (
(71,-210,ls),
(133,-175,o),
(178,-84,o),
(189,25,cs),
(193,71,o),
(197,231,o),
(197,398,cs),
(197,515,o),
(196,562,o),
(196,600,c),
(192,607,l),
(122,567,l),
(123,522,o),
(123,522,o),
(123,462,cs),
(123,277,o),
(122,125,o),
(119,52,cs),
(114,-100,o),
(79,-185,o),
(-2,-243,c),
(2,-250,l)
);
}
);
};
layerId = m01;
shapes = (
{
closed = 1;
nodes = (
(107,-15,ls),
(108,-77,o),
(112,-138,o),
(94,-174,cs),
(81,-200,o),
(61,-219,o),
(40,-227,cs),
(38,-228,o),
(36,-229,o),
(34,-229,c),
(46,-251,l),
(111,-225,o),
(145,-175,o),
(169,-103,cs),
(179,-75,o),
(180,-28,o),
(180,-12,cs),
(180,100,l),
(180,505,ls),
(180,567,o),
(186,593,o),
(248,593,c),
(248,616,l),
(39,616,l),
(39,593,l),
(101,593,o),
(107,567,o),
(107,505,cs)
);
}
);
width = 272;
}
);
note = J;
unicode = 74;
},
{
glyphname = K;
lastChange = "2025-02-16 15:09:55 +0000";
layers = (
{
background = {
shapes = (
{
closed = 1;
nodes = (
(455,0,l),
(524,40,l),
(520,47,l),
(234,345,l),
(504,609,l),
(500,616,l),
(431,576,l),
(180,331,l),
(180,609,l),
(176,616,l),
(107,576,l),
(107,7,l),
(111,0,l),
(180,40,l),
(180,286,l)
);
}
);
};
layerId = m01;
shapes = (
{
closed = 1;
nodes = (
(39,593,l),
(101,593,o),
(107,567,o),
(107,505,cs),
(107,111,ls),
(107,49,o),
(101,23,o),
(39,23,c),
(39,0,l),
(109,1,o),
(178,1,o),
(248,0,c),
(248,23,l),
(186,23,o),
(180,49,o),
(180,111,cs),
(180,283,l),
(389,53,ls),
(435,6,o),
(466,-3,o),
(498,-3,cs),
(578,0,l),
(578,23,l),
(542,28,o),
(505,48,o),
(465,91,cs),
(234,346,l),
(403,511,ls),
(435,542,o),
(476,593,o),
(522,593,c),
(522,616,l),
(464,615,o),
(406,615,o),
(348,616,c),
(348,593,l),
(411,593,o),
(428,574,o),
(376,523,cs),
(180,336,l),
(180,505,ls),
(180,567,o),
(186,593,o),
(248,593,c),
(248,616,l),
(178,615,o),
(109,615,o),
(39,616,c)
);
}
);
width = 586;
}
);
note = K;
unicode = 75;
},
{
glyphname = L;
lastChange = "2025-02-16 15:09:55 +0000";
layers = (
{
background = {
shapes = (
{
closed = 1;
nodes = (
(180,47,l),
(180,609,l),
(176,616,l),
(107,576,l),
(107,7,l),
(111,0,l),
(393,0,l),
(462,40,l),
(458,47,l)
);
}
);
};
layerId = m01;
shapes = (
{
closed = 1;
nodes = (
(107,80,o),
(106,56,o),
(93,43,cs),
(78,27,o),
(56,25,o),
(39,23,c),
(39,0,l),
(182,2,o),
(326,2,o),
(469,0,c),
(469,131,l),
(446,131,l),
(446,61,o),
(422,40,o),
(345,40,cs),
(288,40,ls),
(226,40,o),
(218,44,o),
(198,60,cs),
(182,74,o),
(180,98,o),
(180,118,cs),
(180,505,ls),
(180,567,o),
(186,593,o),
(248,593,c),
(248,616,l),
(178,615,o),
(109,615,o),
(39,616,c),
(39,593,l),
(101,593,o),
(107,567,o),
(107,505,cs),
(107,100,ls)
);
}
);
width = 500;
}
);
note = L;
unicode = 76;
},
{
glyphname = M;
lastChange = "2025-02-16 15:09:55 +0000";
layers = (
{
background = {
shapes = (
{
closed = 1;
nodes = (
(646,466,l),
(655,7,l),
(659,0,l),
(728,40,l),
(718,609,l),
(714,616,l),
(644,576,l),
(407,98,l),
(155,609,l),
(151,616,l),
(82,576,l),
(71,7,l),
(75,0,l),
(144,40,l),
(152,434,l),
(362,7,l),
(366,0,l),
(435,40,l),
(435,40,l)
);
}
);
};
layerId = m01;
shapes = (
{
closed = 1;
nodes = (
(414,134,l),
(167,617,l),
(124,616,o),
(82,616,o),
(39,617,c),
(39,594,l),
(101,594,o),
(107,568,o),
(107,506,cs),
(107,111,ls),
(107,49,o),
(101,23,o),
(39,23,c),
(39,0,l),
(98,1,o),
(156,1,o),
(215,0,c),
(215,23,l),
(153,23,o),
(147,49,o),
(147,111,cs),
(147,485,l),
(389,0,l),
(402,0,l),
(622,522,l),
(622,111,ls),
(622,49,o),
(616,23,o),
(554,23,c),
(554,0,l),
(624,1,o),
(693,1,o),
(763,0,c),
(763,23,l),
(701,23,o),
(695,49,o),
(695,111,cs),
(695,506,ls),
(695,557,o),
(708,594,o),
(763,594,c),
(763,617,l),
(716,616,o),
(669,616,o),
(622,617,c)
);
}
);
width = 802;
}
);
note = M;
unicode = 77;
},
{
glyphname = N;
lastChange = "2025-02-16 18:15:31 +0000";
layers = (
{
anchors = (
{
name = bottom;
pos = (357,0);
},
{
name = top;
pos = (357,616);
}
);
background = {
shapes = (
{
closed = 1;
nodes = (
(597,-1,l),
(666,38,l),
(666,610,l),
(662,617,l),
(593,577,l),
(593,127,l),
(192,598,l),
(176,617,l),
(107,577,l),
(107,7,l),
(111,0,l),
(180,40,l),
(180,488,l)
);
}
);
};
layerId = m01;
shapes = (
{
closed = 1;
nodes = (
(124,616,o),
(82,616,o),
(39,617,c),
(39,594,l),
(101,594,o),
(107,568,o),
(107,506,cs),
(107,111,ls),
(107,49,o),
(101,23,o),
(39,23,c),
(39,0,l),
(98,1,o),
(156,1,o),
(215,0,c),
(215,23,l),
(153,23,o),
(147,49,o),
(147,111,cs),
(147,539,l),
(602,0,l),
(622,0,l),
(622,506,ls),
(622,568,o),
(628,594,o),
(690,594,c),
(690,617,l),
(631,616,o),
(573,616,o),
(514,617,c),
(514,594,l),
(576,594,o),
(582,568,o),
(582,506,cs),
(582,135,l),
(167,617,l)
);
},
{
closed = 1;
nodes = (
);
}
);
width = 714;
}
);
note = N;
unicode = 78;
},
{
glyphname = O;
lastChange = "2025-02-16 18:07:24 +0000";
layers = (
{
anchors = (
{
name = bottom;
pos = (383,0);
},
{
name = center;
pos = (383,308);
},
{
name = ogonek;
pos = (689,10);
},
{
name = top;
pos = (383,616);
},
{
name = topleft;
pos = (20,616);
},
{
name = topright;
pos = (746,616);
}
);
background = {
shapes = (
{
closed = 1;
nodes = (
(651,111,o),
(706,209,o),
(709,323,c),
(706,395,o),
(695,434,o),
(665,483,cs),
(604,582,o),
(518,633,o),
(414,633,cs),
(365,633,o),
(317,621,o),
(276,597,cs),
(206,557,ls),
(180,542,o),
(128,495,o),
(111,471,cs),
(71,415,o),
(53,359,o),
(53,290,cs),
(53,121,o),
(188,-21,o),
(348,-21,cs),
(397,-21,o),
(449,-7,o),
(493,19,cs),
(562,59,ls)
);
},
{
closed = 1;
nodes = (
(487,32,o),
(455,26,o),
(414,26,cs),
(340,26,o),
(257,61,o),
(212,111,cs),
(200,123,o),
(187,141,o),
(167,168,c),
(136,236,o),
(126,271,o),
(126,323,cs),
(126,425,o),
(164,501,o),
(248,566,c),
(290,583,o),
(306,586,o),
(348,586,cs),
(453,586,o),
(534,538,o),
(598,438,c),
(625,389,o),
(636,347,o),
(636,289,cs),
(634,192,o),
(591,102,o),
(520,47,c)
);
}
);
};
layerId = m01;
shapes = (
{
closed = 1;
nodes = (
(153,140,o),
(258,35,o),
(383,35,c),
(521,36,o),
(615,140,o),
(615,311,c),
(615,498,o),
(498,589,o),
(381,587,cs),
(266,585,o),
(151,492,o),
(151,311,c)
);
},
{
closed = 1;
nodes = (
(205,-6,o),
(54,121,o),
(54,311,cs),
(54,503,o),
(205,626,o),
(383,626,cs),
(584,626,o),
(712,503,o),
(712,311,cs),
(712,142,o),
(584,-6,o),
(383,-6,cs)
);
}
);
width = 766;
}
);
note = O;
unicode = 79;
},
{
glyphname = P;
lastChange = "2025-02-16 15:09:55 +0000";
layers = (
{
background = {
shapes = (
{
closed = 1;
nodes = (
(408,602,o),
(390,611,o),
(316,616,cs),
(305,617,o),
(264,617,o),
(195,617,cs),
(176,617,l),
(107,577,l),
(107,7,l),
(111,0,l),
(180,40,l),
(180,262,l),
(200,260,o),
(219,258,o),
(227,258,cs),
(263,258,o),
(300,267,o),
(326,282,cs),
(395,322,ls),
(443,350,o),
(472,404,o),
(472,465,cs),
(472,497,o),
(466,523,o),
(452,547,cs),
(448,554,l)
);
},
{
closed = 1;
nodes = (
(396,476,o),
(399,463,o),
(399,432,cs),
(399,394,o),
(387,356,o),
(365,327,cs),
(354,311,o),
(339,305,o),
(308,305,cs),
(267,305,o),
(225,309,o),
(185,318,cs),
(180,319,l),
(180,570,l),
(309,571,o),
(342,561,o),
(381,509,c)
);
}
);
};
layerId = m01;
shapes = (
{
closed = 1;
nodes = (
(109,1,o),
(178,1,o),
(248,0,c),
(248,23,l),
(186,23,o),
(180,49,o),
(180,111,cs),
(180,272,l),
(372,259,o),
(463,326,o),
(463,448,cs),
(463,530,o),
(411,617,o),
(271,617,cs),
(225,617,o),
(179,615,o),
(133,615,c),
(102,615,o),
(70,616,o),
(39,616,c),
(39,593,l),
(93,593,o),
(107,571,o),
(107,517,cs),
(107,111,ls),
(107,49,o),
(101,23,o),
(39,23,c),
(39,0,l)
);
},
{
closed = 1;
nodes = (
(180,576,l),
(209,576,ls),
(326,576,o),
(374,551,o),
(374,436,cs),
(374,327,o),
(327,291,o),
(180,304,c)
);
}
);
width = 486;
}
);
note = P;
unicode = 80;
},
{
glyphname = Q;
lastChange = "2025-02-16 15:09:55 +0000";
layers = (
{
background = {
shapes = (
{
closed = 1;
nodes = (
(651,111,o),
(706,209,o),
(709,323,c),
(706,395,o),
(695,434,o),
(665,483,cs),
(604,582,o),
(518,633,o),
(414,633,cs),
(365,633,o),
(317,620,o),
(276,597,cs),
(206,557,ls),
(180,542,o),
(128,495,o),
(111,470,cs),
(71,415,o),
(53,359,o),
(53,289,cs),
(53,121,o),
(188,-21,o),
(348,-21,cs),
(365,-21,o),
(373,-20,o),
(389,-18,c),
(395,-28,ls),
(405,-45,o),
(405,-45,o),
(409,-51,cs),
(414,-60,o),
(415,-61,o),
(417,-65,cs),
(454,-123,o),
(458,-128,o),
(480,-151,cs),
(505,-180,o),
(548,-206,o),
(589,-217,cs),
(597,-219,o),
(611,-221,o),
(631,-224,c),
(653,-223,o),
(667,-223,o),
(675,-221,cs),
(678,-220,l),
(747,-180,l),
(743,-173,l),
(733,-176,o),
(722,-176,o),
(696,-177,c),
(661,-173,o),
(648,-170,o),
(627,-161,cs),
(596,-148,o),
(572,-131,o),
(545,-105,c),
(526,-82,o),
(509,-60,o),
(491,-32,cs),
(483,-18,o),
(480,-13,o),
(472,0,cs),
(469,4,l),
(468,6,l),
(486,15,o),
(490,17,o),
(493,19,cs),
(562,59,ls)
);
},
{
closed = 1;
nodes = (
(501,38,o),
(480,33,o),
(454,29,cs),
(438,27,o),
(429,26,o),
(414,26,cs),
(340,26,o),
(257,60,o),
(212,111,cs),
(200,123,o),
(187,140,o),
(167,168,c),
(136,236,o),
(126,271,o),
(126,323,cs),
(126,424,o),
(164,501,o),
(248,566,c),
(290,583,o),
(306,586,o),
(348,586,cs),
(453,586,o),
(534,538,o),
(598,438,c),
(625,389,o),
(636,347,o),
(636,289,cs),
(634,192,o),
(591,102,o),
(520,47,c)
);
}
);
};
layerId = m01;
shapes = (
{
closed = 1;
nodes = (
(153,140,o),
(258,35,o),
(381,35,cs),
(521,36,o),
(615,140,o),
(615,311,cs),
(615,498,o),
(498,589,o),
(381,587,cs),
(266,585,o),
(151,492,o),
(151,311,cs)
);
},
{
closed = 1;
nodes = (
(54,503,o),
(205,626,o),
(383,626,cs),
(584,626,o),
(712,503,o),
(712,311,cs),
(712,169,o),
(621,41,o),
(473,5,c),
(495,-48,o),
(539,-98,o),
(567,-124,cs),
(607,-161,o),
(656,-187,o),
(731,-160,c),
(743,-183,l),
(686,-235,o),
(584,-230,o),
(528,-190,cs),
(468,-147,o),
(421,-79,o),
(380,-6,c),
(203,-5,o),
(54,122,o),
(54,311,cs)
);
}
);
width = 797;
}
);
note = Q;
unicode = 81;
},
{
glyphname = R;
lastChange = "2025-02-16 15:09:55 +0000";
layers = (
{
background = {
shapes = (
{
closed = 1;
nodes = (
(297,257,l),
(410,93,o),
(513,-1,o),
(581,-1,cs),
(584,-1,o),
(587,-1,o),
(590,-1,c),
(659,39,l),
(655,46,l),
(651,46,o),
(648,46,o),
(647,46,cs),
(645,46,o),
(645,46,o),
(644,46,c),
(644,46,o),
(643,46,o),
(643,46,c),
(640,45,o),
(638,45,o),
(635,45,cs),
(584,45,o),
(459,161,o),
(372,290,c),
(420,318,ls),
(469,346,o),
(499,401,o),
(499,460,cs),
(499,536,o),
(460,591,o),
(392,608,cs),
(357,617,o),
(357,617,o),
(187,617,cs),
(176,617,l),
(107,577,l),
(107,275,l),
(107,273,l),
(107,6,l),
(111,-1,l),
(181,39,l),
(181,263,l)
);
},
{
closed = 1;
nodes = (
(180,570,l),
(233,570,ls),
(332,570,o),
(365,558,o),
(408,505,c),
(423,472,o),
(426,458,o),
(426,426,cs),
(426,368,o),
(399,314,o),
(366,305,cs),
(362,304,l),
(181,314,l)
);
}
);
};
layerId = m01;
shapes = (
{
closed = 1;
nodes = (
(39,593,l),
(101,593,o),
(107,567,o),
(107,505,cs),
(107,111,ls),
(107,49,o),
(101,23,o),
(39,23,c),
(39,0,l),
(109,1,o),
(178,1,o),
(248,0,c),
(248,23,l),
(186,23,o),
(180,49,o),
(180,111,cs),
(180,283,l),
(210,283,o),
(238,285,o),
(263,289,c),
(352,113,o),
(454,-3,o),
(544,-3,cs),
(624,0,l),
(624,22,l),
(532,22,o),
(444,139,o),
(345,311,c),
(417,341,o),
(457,393,o),
(457,466,cs),
(457,551,o),
(378,616,o),
(309,616,c),
(250,616,o),
(192,615,o),
(153,615,c),
(102,615,o),
(70,616,o),
(39,616,c)
);
},
{
closed = 1;
nodes = (
(180,576,l),
(252,576,ls),
(325,576,o),
(374,520,o),
(374,446,cs),
(374,365,o),
(332,316,o),
(180,315,c)
);
}
);
width = 632;
}
);
note = R;
unicode = 82;
},
{
glyphname = S;
lastChange = "2025-02-16 15:09:55 +0000";
layers = (
{
background = {
shapes = (
{
closed = 1;
nodes = (
(401,235,ls),
(380,271,o),
(362,285,o),
(253,348,cs),
(182,390,o),
(159,408,o),
(142,434,c),
(130,460,o),
(128,469,o),
(128,493,cs),
(128,526,o),
(137,551,o),
(157,572,c),
(179,579,o),
(206,582,o),
(237,582,cs),
(271,582,o),
(271,582,o),
(321,575,cs),
(322,575,l),
(391,615,l),
(387,622,l),
(386,622,ls),
(370,626,o),
(333,629,o),
(302,629,cs),
(256,629,o),
(207,619,o),
(178,602,cs),
(109,562,ls),
(107,561,o),
(105,558,o),
(84,537,cs),
(61,513,o),
(54,496,o),
(54,460,cs),
(54,388,o),
(76,366,o),
(249,266,cs),
(292,240,o),
(313,221,o),
(334,190,c),
(346,165,o),
(350,151,o),
(350,125,cs),
(350,96,o),
(337,56,o),
(323,43,cs),
(315,36,o),
(296,32,o),
(263,32,cs),
(217,32,o),
(178,41,o),
(118,65,c),
(49,25,l),
(53,18,l),
(115,-6,o),
(150,-14,o),
(198,-14,cs),
(231,-14,o),
(268,-5,o),
(293,10,cs),
(363,50,ls),
(403,73,o),
(423,109,o),
(423,158,cs),
(423,185,o),
(420,198,o),
(405,228,cs)
);
}
);
};
layerId = m01;
shapes = (
{
closed = 1;
nodes = (
(157,-7,o),
(211,-8,cs),
(325,-8,o),
(424,53,o),
(424,176,cs),
(424,341,o),
(114,354,o),
(117,492,cs),
(118,550,o),
(171,582,o),
(228,582,cs),
(295,583,o),
(367,542,o),
(367,453,c),
(391,453,l),
(390,500,o),
(390,546,o),
(391,593,c),
(334,614,o),
(277,625,o),
(227,624,cs),
(123,623,o),
(46,571,o),
(46,446,cs),
(46,272,o),
(350,279,o),
(350,136,cs),
(350,74,o),
(282,32,o),
(214,33,cs),
(143,34,o),
(72,81,o),
(72,197,c),
(48,197,l),
(49,143,o),
(49,90,o),
(48,36,c),
(100,7,o)
);
}
);
width = 478;
}
);
note = S;
unicode = 83;
},
{
glyphname = T;
lastChange = "2025-02-16 15:04:29 +0000";
layers = (
{
background = {
shapes = (
{
closed = 1;
nodes = (
(462,570,l),
(531,610,l),
(527,617,l),
(137,617,l),
(68,577,l),
(72,570,l),
(263,570,l),
(263,7,l),
(267,0,l),
(336,40,l),
(336,570,l)
);
}
);
};
layerId = m01;
shapes = (
{
closed = 1;
nodes = (
(252,2,o),
(347,2,o),
(441,1,c),
(441,23,l),
(364,23,o),
(336,34,o),
(336,111,cs),
(336,576,l),
(467,576,ls),
(544,576,o),
(568,555,o),
(568,485,c),
(591,485,l),
(589,529,o),
(589,572,o),
(591,616,c),
(397,614,o),
(202,614,o),
(8,616,c),
(10,572,o),
(10,529,o),
(8,485,c),
(31,485,l),
(31,555,o),
(55,576,o),
(132,576,cs),
(263,576,l),
(263,111,ls),
(263,34,o),
(235,23,o),
(158,23,c),
(158,1,l)
);
}
);
width = 599;
}
);
note = T;
unicode = 84;
},
{
glyphname = U;
lastChange = "2025-02-16 18:07:33 +0000";
layers = (
{
anchors = (
{
name = bottom;
pos = (329,0);
},
{
name = ogonek;
pos = (591,10);
},
{
name = top;
pos = (329,616);
},
{
name = topright;
pos = (637,616);
}
);
background = {
shapes = (
{
closed = 1;
nodes = (
(481,44,o),
(437,37,o),
(389,37,cs),
(280,37,o),
(224,60,o),
(176,122,c),
(157,168,o),
(152,188,o),
(152,284,cs),
(152,316,o),
(153,356,o),
(154,408,cs),
(154,416,o),
(154,447,o),
(154,494,cs),
(153,529,o),
(154,584,o),
(155,609,c),
(151,616,l),
(81,576,l),
(81,553,o),
(80,500,o),
(80,461,cs),
(80,414,o),
(80,382,o),
(80,375,cs),
(79,343,o),
(79,314,o),
(79,287,cs),
(79,169,o),
(88,109,o),
(108,78,cs),
(147,19,o),
(216,-10,o),
(324,-10,cs),
(389,-10,o),
(443,3,o),
(484,26,cs),
(553,66,ls),
(579,81,o),
(592,94,o),
(613,122,c),
(638,163,o),
(642,188,o),
(642,328,cs),
(642,360,o),
(642,360,o),
(640,609,c),
(636,616,l),
(567,576,l),
(568,422,o),
(568,337,o),
(568,295,cs),
(568,153,o),
(565,131,o),
(540,89,c),
(527,72,o),
(521,64,o),
(512,56,c)
);
}
);
};
layerId = m01;
shapes = (
{
closed = 1;
nodes = (
(8,593,l),
(70,593,o),
(75,567,o),
(76,505,cs),
(77,404,o),
(77,304,o),
(76,214,cs),
(75,77,o),
(181,-11,o),
(327,-11,cs),
(474,-11,o),
(583,77,o),
(582,214,cs),
(581,311,o),
(581,408,o),
(582,505,cs),
(583,567,o),
(588,593,o),
(650,593,c),
(650,616,l),
(591,614,o),
(533,614,o),
(474,616,c),
(474,593,l),
(536,593,o),
(541,567,o),
(542,505,cs),
(543,408,o),
(543,311,o),
(542,214,cs),
(541,111,o),
(440,42,o),
(356,42,cs),
(268,42,o),
(150,97,o),
(149,203,cs),
(148,304,o),
(148,404,o),
(149,505,cs),
(150,567,o),
(155,593,o),
(217,593,c),
(217,616,l),
(147,614,o),
(78,614,o),
(8,616,c)
);
}
);
width = 657;
}
);
note = U;
unicode = 85;
},
{
glyphname = V;
lastChange = "2025-02-16 15:04:29 +0000";
layers = (
{
background = {
shapes = (
{
closed = 1;
nodes = (
(193,609,l),
(189,616,l),
(120,576,l),
(315,7,l),
(319,0,l),
(388,40,l),
(582,609,l),
(578,616,l),
(509,576,l),
(357,131,l)
);
}
);
};
layerId = m01;
shapes = (
{
closed = 1;
nodes = (
(196,615,o),
(77,615,o),
(8,617,c),
(8,594,l),
(68,594,o),
(100,549,o),
(132,471,cs),
(335,-14,l),
(348,-14,l),
(533,471,ls),
(565,549,o),
(604,594,o),
(664,594,c),
(664,617,l),
(595,615,o),
(503,615,o),
(434,617,c),
(434,594,l),
(493,590,o),
(526,574,o),
(507,509,c),
(362,127,l),
(204,507,l),
(182,573,o),
(206,590,o),
(265,594,c),
(265,617,l)
);
}
);
width = 672;
}
);
note = V;
unicode = 86;
},
{
glyphname = W;
lastChange = "2025-02-16 15:04:29 +0000";
layers = (
{
background = {
shapes = (
{
closed = 1;
nodes = (
(575,607,l),
(576,609,l),
(572,616,l),
(571,616,l),
(501,576,l),
(502,574,l),
(351,131,l),
(187,609,l),
(183,616,l),
(114,576,l),
(309,7,l),
(313,0,l),
(382,40,l),
(533,483,l),
(696,7,l),
(700,0,l),
(770,40,l),
(964,609,l),
(960,616,l),
(890,576,l),
(738,131,l)
);
}
);
};
layerId = m01;
shapes = (
{
closed = 1;
nodes = (
(128,482,l),
(335,-14,l),
(348,-14,l),
(371,104,l),
(202,513,l)
);
},
{
closed = 1;
nodes = (
(196,615,o),
(77,615,o),
(8,617,c),
(8,594,l),
(68,594,o),
(100,549,o),
(132,471,c),
(212,487,l),
(178,570,o),
(200,590,o),
(265,594,c),
(265,617,l)
);
},
{
closed = 1;
nodes = (
(549,554,l),
(509,554,l),
(349,94,l),
(328,48,l),
(348,-14,l)
);
},
{
closed = 1;
nodes = (
(507,482,l),
(714,-14,l),
(727,-14,l),
(750,104,l),
(581,513,l)
);
},
{
closed = 1;
nodes = (
(575,615,o),
(456,615,o),
(387,617,c),
(387,594,l),
(447,594,o),
(479,549,o),
(511,471,c),
(591,487,l),
(557,570,o),
(579,590,o),
(644,594,c),
(644,617,l)
);
},
{
closed = 1;
nodes = (
(897,471,l),
(865,486,l),
(728,94,l),
(707,48,l),
(727,-14,l)
);
},
{
closed = 1;
nodes = (
(798,594,l),
(863,590,o),
(899,569,o),
(865,486,c),
(897,471,l),
(929,549,o),
(968,594,o),
(1028,594,c),
(1028,617,l),
(959,615,o),
(867,615,o),
(798,617,c)
);
}
);
width = 1036;
}
);
note = W;
unicode = 87;
},
{
glyphname = X;
lastChange = "2025-02-16 15:09:55 +0000";
layers = (
{
background = {
shapes = (
{
closed = 1;
nodes = (
(84,7,l),
(88,0,l),
(157,40,l),
(304,254,l),
(478,0,l),
(547,40,l),
(543,47,l),
(352,325,l),
(547,609,l),
(543,616,l),
(473,576,l),
(327,362,l),
(153,616,l),
(84,576,l),
(88,569,l),
(278,291,l)
);
}
);
};
layerId = m01;
shapes = (
{
closed = 1;
nodes = (
(277,286,l),
(169,144,ls),
(118,75,o),
(76,23,o),
(16,23,c),
(16,0,l),
(85,2,o),
(154,2,o),
(223,0,c),
(223,23,l),
(148,28,o),
(162,73,o),
(202,127,cs),
(299,253,l),
(391,112,l),
(430,46,o),
(440,26,o),
(363,22,c),
(363,-1,l),
(432,1,o),
(551,1,o),
(620,-1,c),
(620,22,l),
(557,25,o),
(517,60,o),
(465,143,cs),
(350,319,l),
(467,473,ls),
(518,542,o),
(560,594,o),
(620,594,c),
(620,617,l),
(551,615,o),
(482,615,o),
(413,617,c),
(413,594,l),
(484,594,o),
(477,547,o),
(434,490,cs),
(328,352,l),
(229,504,l),
(190,570,o),
(181,594,o),
(257,594,c),
(257,617,l),
(188,615,o),
(84,615,o),
(15,617,c),
(15,594,l),
(78,594,o),
(103,556,o),
(155,473,cs)
);
}
);
width = 635;
}
);
note = X;
unicode = 88;
},
{
glyphname = Y;
lastChange = "2025-02-16 15:04:29 +0000";
layers = (
{
background = {
shapes = (
{
closed = 1;
nodes = (
(403,609,l),
(399,616,l),
(329,576,l),
(183,351,l),
(14,616,l),
(-55,576,l),
(-51,569,l),
(134,278,l),
(134,7,l),
(138,0,l),
(208,40,l),
(208,311,l)
);
}
);
};
layerId = m01;
shapes = (
{
closed = 1;
nodes = (
(189,584,o),
(200,590,o),
(265,594,c),
(265,617,l),
(196,615,o),
(77,615,o),
(8,617,c),
(8,594,l),
(71,591,o),
(111,556,o),
(163,473,c),
(282,263,l),
(282,111,ls),
(282,49,o),
(276,23,o),
(214,23,c),
(214,0,l),
(284,1,o),
(353,1,o),
(423,0,c),
(423,23,l),
(361,23,o),
(355,49,o),
(355,111,cs),
(355,279,l),
(468,471,ls),
(513,546,o),
(557,594,o),
(617,594,c),
(617,617,l),
(548,615,o),
(456,615,o),
(387,617,c),
(387,594,l),
(452,590,o),
(478,566,o),
(434,487,cs),
(334,311,l),
(237,504,l)
);
}
);
width = 625;
}
);
note = Y;
unicode = 89;
},
{
glyphname = Z;
lastChange = "2025-02-16 15:09:55 +0000";
layers = (
{
background = {
shapes = (
{
closed = 1;
nodes = (
(34,0,l),
(467,0,l),
(536,40,l),
(532,47,l),
(108,47,l),
(493,609,l),
(489,616,l),
(98,616,l),
(29,576,l),
(33,569,l),
(415,569,l),
(30,7,l)
);
}
);
};
layerId = m01;
shapes = (
{
closed = 1;
nodes = (
(148,2,o),
(258,3,o),
(369,2,cs),
(419,2,o),
(469,1,o),
(520,0,c),
(518,44,o),
(518,87,o),
(520,131,c),
(497,131,l),
(497,61,o),
(473,41,o),
(396,40,cs),
(313,39,o),
(229,39,o),
(146,40,c),
(497,616,l),
(403,615,o),
(309,614,o),
(216,615,cs),
(168,615,o),
(121,615,o),
(74,616,c),
(76,572,o),
(76,529,o),
(74,485,c),
(97,485,l),
(97,555,o),
(121,575,o),
(198,576,cs),
(262,577,o),
(327,577,o),
(391,576,c),
(38,0,l)
);
}
);
width = 566;
}
);
note = Z;
unicode = 90;
},
{
glyphname = a;
lastChange = "2025-02-22 15:59:00 +0000";
layers = (
{
anchors = (
{
name = bottom;
pos = (209,0);
},
{
name = ogonek;
pos = (359,10);
},
{
name = top;
pos = (209,387);
}
);
background = {
shapes = (
{
closed = 1;
nodes = (
(44,0,o),
(72,-11,o),
(119,-11,cs),
(167,-11,o),
(198,1,o),
(242,37,c),
(241,38,ls),
(265,17,o),
(282,7,o),
(312,-3,c),
(386,40,l),
(349,52,o),
(333,60,o),
(310,80,c),
(310,344,l),
(260,384,o),
(233,395,o),
(185,395,cs),
(136,395,o),
(107,384,o),
(59,345,c),
(62,340,l),
(89,347,o),
(101,349,o),
(119,349,cs),
(165,349,o),
(197,337,o),
(238,304,c),
(238,184,l),
(238,185,l),
(-7,44,l),
(-4,38,l)
);
}
);
};
layerId = m01;
shapes = (
{
closed = 1;
nodes = (
(64,295,l),
(87,322,o),
(120,336,o),
(159,336,cs),
(183,336,o),
(204,330,o),
(221,310,cs),
(236,292,o),
(238,276,o),
(238,228,c),
(187,209,o),
(109,181,o),
(79,158,cs),
(52,137,o),
(39,108,o),
(38,80,cs),
(37,38,o),
(65,-2,o),
(118,-4,cs),
(164,-6,o),
(207,34,o),
(242,61,c),
(250,24,o),
(275,-2,o),
(313,-3,cs),
(343,-4,o),
(375,17,o),
(381,29,c),
(373,43,l),
(351,34,o),
(333,40,o),
(320,57,cs),
(307,73,o),
(307,98,o),
(308,125,cs),
(308,177,ls),
(311,316,o),
(301,337,o),
(284,357,cs),
(263,382,o),
(233,393,o),
(197,393,cs),
(143,393,o),
(100,362,o),
(64,321,c)
);
},
{
closed = 1;
nodes = (
(102,124,o),
(110,147,o),
(140,166,cs),
(154,175,o),
(212,201,o),
(238,209,c),
(238,177,ls),
(238,140,o),
(237,135,o),
(238,105,cs),
(239,82,l),
(211,61,o),
(179,37,o),
(149,39,cs),
(119,41,o),
(104,77,o),
(103,98,cs)
);
}
);
width = 385;
}
);
note = a;
unicode = 97;
},
{
glyphname = b;
lastChange = "2025-02-16 15:09:55 +0000";
layers = (
{
background = {
shapes = (
{
closed = 1;
nodes = (
(118,1,o),
(147,-11,o),
(195,-11,cs),
(242,-11,o),
(274,1,o),
(318,36,c),
(400,68,o),
(444,128,o),
(444,210,cs),
(444,310,o),
(360,395,o),
(261,395,cs),
(214,395,o),
(183,383,o),
(141,350,c),
(141,664,l),
(115,687,o),
(99,697,o),
(68,707,c),
(-6,664,l),
(31,652,o),
(46,644,o),
(69,624,c),
(69,40,l)
);
},
{
closed = 1;
nodes = (
(165,347,o),
(177,349,o),
(195,349,cs),
(295,349,o),
(372,273,o),
(372,174,cs),
(372,125,o),
(353,82,o),
(314,43,c),
(290,37,o),
(278,35,o),
(261,35,cs),
(214,35,o),
(183,47,o),
(141,80,c),
(141,342,l),
(142,341,l)
);
}
);
};
layerId = m01;
shapes = (
{
closed = 1;
nodes = (
(69,582,l),
(69,-6,l),
(102,19,l),
(126,10,l),
(126,10,o),
(162,-6,o),
(234,-6,cs),
(337,-6,o),
(446,73,o),
(446,213,cs),
(446,307,o),
(377,393,o),
(285,393,cs),
(231,393,o),
(177,363,o),
(141,322,c),
(141,719,l),
(92,711,o),
(48,699,o),
(1,685,c),
(1,669,l),
(59,668,o),
(69,643,o),
(69,584,cs)
);
},
{
closed = 1;
nodes = (
(141,295,l),
(164,321,o),
(197,337,o),
(235,337,cs),
(271,337,o),
(295,326,o),
(314,309,cs),
(335,291,o),
(367,248,o),
(367,179,cs),
(367,93,o),
(320,27,o),
(244,26,cs),
(199,25,o),
(161,45,o),
(141,61,c)
);
}
);
width = 477;
}
);
note = b;
unicode = 98;
},
{
glyphname = c;
lastChange = "2025-02-16 19:56:14 +0000";
layers = (
{
anchors = (
{
name = bottom;
pos = (199,0);
},
{
name = top;
pos = (199,387);
}
);
background = {
shapes = (
{
closed = 1;
nodes = (
(353,384,o),
(326,395,o),
(277,395,cs),
(229,395,o),
(198,383,o),
(154,347,c),
(72,316,o),
(28,256,o),
(28,174,cs),
(28,74,o),
(112,-11,o),
(211,-11,cs),
(261,-11,o),
(287,-1,o),
(337,39,c),
(334,44,l),
(330,44,o),
(327,43,o),
(326,42,c),
(309,37,o),
(295,35,o),
(277,35,cs),
(177,35,o),
(100,111,o),
(100,210,cs),
(100,259,o),
(119,302,o),
(158,341,c),
(182,347,o),
(193,349,o),
(211,349,cs),
(260,349,o),
(289,337,o),
(334,301,c),
(405,342,l)
);
}
);
};
layerId = m01;
shapes = (
{
closed = 1;
nodes = (
(333,15,o),
(274,-6,o),
(220,-6,cs),
(115,-7,o),
(31,73,o),
(31,185,cs),
(31,326,o),
(134,394,o),
(234,394,cs),
(286,394,o),
(337,371,o),
(372,319,c),
(327,289,l),
(309,336,o),
(272,359,o),
(234,359,cs),
(173,360,o),
(109,303,o),
(110,193,cs),
(110,115,o),
(149,38,o),
(252,37,cs),
(299,36,o),
(347,52,o),
(379,82,c),
(389,63,l)
);
}
);
width = 397;
}
);
note = c;
unicode = 99;
},
{
glyphname = d;
lastChange = "2025-02-17 12:19:13 +0000";
layers = (
{
background = {
shapes = (
{
closed = 1;
nodes = (
(313,393,o),
(301,395,o),
(283,395,cs),
(236,395,o),
(204,383,o),
(160,347,c),
(78,316,o),
(34,256,o),
(34,174,cs),
(34,74,o),
(118,-11,o),
(217,-11,cs),
(265,-11,o),
(296,1,o),
(340,37,c),
(339,38,ls),
(361,18,o),
(382,6,o),
(410,-3,c),
(484,40,l),
(447,52,o),
(432,60,o),
(408,80,c),
(408,664,l),
(382,687,o),
(366,697,o),
(335,707,c),
(261,664,l),
(298,652,o),
(313,644,o),
(336,624,c),
(336,386,l),
(336,387,l)
);
},
{
closed = 1;
nodes = (
(313,37,o),
(301,35,o),
(283,35,cs),
(183,35,o),
(106,111,o),
(106,210,cs),
(106,259,o),
(125,302,o),
(164,341,c),
(188,347,o),
(199,349,o),
(217,349,cs),
(263,349,o),
(295,337,o),
(336,304,c),
(336,42,l),
(336,43,l)
);
}
);
};
layerId = m01;
shapes = (
{
closed = 1;
nodes = (
(268,615,l),
(324,615,o),
(336,593,o),
(336,528,cs),
(336,382,l),
(319,387,o),
(288,393,o),
(243,393,cs),
(140,393,o),
(31,314,o),
(31,174,cs),
(31,80,o),
(100,-6,o),
(192,-6,cs),
(246,-6,o),
(300,24,o),
(336,65,c),
(336,54,l),
(339,-6,l),
(388,0,o),
(429,6,o),
(476,13,c),
(476,29,l),
(418,36,o),
(408,53,o),
(408,112,cs),
(408,665,l),
(359,657,o),
(315,645,o),
(268,631,c)
);
},
{
closed = 1;
nodes = (
(110,294,o),
(157,360,o),
(233,361,cs),
(278,362,o),
(316,342,o),
(336,326,c),
(336,92,l),
(313,66,o),
(280,50,o),
(242,50,cs),
(206,50,o),
(182,61,o),
(163,78,cs),
(142,96,o),
(110,139,o),
(110,208,cs)
);
}
);
width = 485;
}
);
note = d;
unicode = 100;
},
{
glyphname = e;
lastChange = "2025-02-16 18:30:55 +0000";
layers = (
{
anchors = (
{
name = bottom;
pos = (201,0);
},
{
name = ogonek;
pos = (361,10);
},
{
name = top;
pos = (201,387);
}
);
annotations = (
{
pos = (-76.841,499.727);
type = Plus;
},
{
pos = (-39,438);
type = Plus;
}
);
background = {
shapes = (
{
closed = 1;
nodes = (
(107,168,l),
(405,340,l),
(402,346,l),
(362,380,o),
(324,395,o),
(279,395,cs),
(232,395,o),
(200,383,o),
(156,348,c),
(73,315,o),
(30,256,o),
(30,174,cs),
(30,74,o),
(114,-11,o),
(213,-11,cs),
(262,-11,o),
(292,1,o),
(339,39,c),
(336,44,l),
(307,37,o),
(298,35,o),
(279,35,cs),
(194,35,o),
(128,87,o),
(106,170,c)
);
},
{
closed = 1;
nodes = (
(105,177,l),
(103,192,o),
(102,198,o),
(102,210,cs),
(102,259,o),
(121,301,o),
(160,341,c),
(184,347,o),
(196,349,o),
(213,349,cs),
(258,349,o),
(290,337,o),
(330,306,c)
);
}
);
};
layerId = m01;
shapes = (
{
closed = 1;
nodes = (
(366,75,l),
(345,56,o),
(307,37,o),
(249,38,cs),
(171,39,o),
(108,101,o),
(108,189,cs),
(108,206,o),
(109,221,o),
(111,236,c),
(378,236,l),
(369,336,o),
(311,393,o),
(233,393,cs),
(122,393,o),
(31,316,o),
(31,176,cs),
(31,63,o),
(122,-6,o),
(217,-6,cs),
(302,-6,o),
(347,29,o),
(375,58,c)
);
},
{
closed = 1;
nodes = (
(131,319,o),
(167,358,o),
(217,358,cs),
(267,358,o),
(299,311,o),
(303,258,c),
(116,259,l)
);
}
);
width = 401;
}
);
note = e;
unicode = 101;
},
{
glyphname = f;
lastChange = "2025-02-17 12:19:51 +0000";
layers = (
{
background = {
shapes = (
{
closed = 1;
nodes = (
(84,386,l),
(84,387,l),
(11,346,l),
(14,341,l),
(84,341,l),
(84,40,l),
(109,18,o),
(128,7,o),
(157,-3,c),
(232,40,l),
(195,52,o),
(179,60,o),
(156,80,c),
(156,342,l),
(157,341,l),
(263,341,l),
(336,382,l),
(333,387,l),
(156,387,l),
(156,662,l),
(157,661,l),
(180,667,o),
(191,669,o),
(210,669,cs),
(258,669,o),
(287,657,o),
(333,621,c),
(404,662,l),
(350,705,o),
(325,715,o),
(275,715,cs),
(228,715,o),
(196,703,o),
(153,667,c),
(84,628,l)
);
}
);
};
layerId = m01;
shapes = (
{
closed = 1;
nodes = (
(86,2,o),
(166,2,o),
(235,0,c),
(235,16,l),
(166,16,o),
(156,34,o),
(156,101,cs),
(156,104,l),
(156,338,l),
(330,338,l),
(330,387,l),
(156,387,l),
(156,424,ls),
(156,486,o),
(162,547,o),
(180,583,cs),
(198,619,o),
(229,642,o),
(260,639,cs),
(291,636,o),
(296,620,o),
(305,610,cs),
(314,600,o),
(330,581,o),
(352,583,cs),
(374,585,o),
(391,600,o),
(389,621,cs),
(387,642,o),
(376,653,o),
(365,659,cs),
(357,663,o),
(333,674,o),
(298,674,cs),
(203,674,o),
(141,613,o),
(105,512,cs),
(99,495,o),
(85,437,o),
(83,384,c),
(17,354,l),
(17,338,l),
(84,338,l),
(84,101,ls),
(84,37,o),
(72,16,o),
(17,16,c),
(17,0,l)
);
}
);
width = 338;
}
);
note = f;
unicode = 102;
},
{
glyphname = g;
lastChange = "2025-02-17 13:03:27 +0000";
layers = (
{
annotations = (
{
pos = (246.198,131.736);
type = Plus;
}
);
background = {
shapes = (
{
closed = 1;
nodes = (
(333,384,o),
(305,395,o),
(257,395,cs),
(209,395,o),
(178,383,o),
(134,347,c),
(52,316,o),
(8,256,o),
(8,174,cs),
(8,74,o),
(92,-11,o),
(191,-11,cs),
(237,-11,o),
(269,1,o),
(310,34,c),
(310,-238,l),
(310,-237,l),
(287,-243,o),
(275,-245,o),
(257,-245,cs),
(209,-245,o),
(180,-234,o),
(134,-197,c),
(63,-238,l),
(115,-280,o),
(143,-291,o),
(191,-291,cs),
(239,-291,o),
(270,-279,o),
(314,-244,c),
(382,-204,l),
(382,344,l)
);
},
{
closed = 1;
nodes = (
(287,37,o),
(275,35,o),
(257,35,cs),
(157,35,o),
(80,111,o),
(80,210,cs),
(80,259,o),
(99,302,o),
(138,341,c),
(162,347,o),
(173,349,o),
(191,349,cs),
(237,349,o),
(269,337,o),
(310,304,c),
(310,42,l),
(310,43,l)
);
}
);
};
layerId = m01;
shapes = (
{
closed = 1;
nodes = (
(135,393,o),
(54,331,o),
(54,249,cs),
(54,179,o),
(82,140,o),
(122,119,c),
(121,119,l),
(88,104,o),
(38,83,o),
(38,30,cs),
(38,-3,o),
(90,-31,o),
(120,-34,c),
(102,-41,o),
(21,-83,o),
(21,-151,cs),
(21,-219,o),
(92,-248,o),
(161,-249,cs),
(306,-251,o),
(442,-206,o),
(442,-75,cs),
(442,-1,o),
(386,28,o),
(346,33,cs),
(324,36,o),
(188,36,o),
(154,36,cs),
(121,36,o),
(94,38,o),
(94,58,cs),
(94,71,o),
(119,92,o),
(146,109,c),
(169,102,o),
(194,99,o),
(220,99,cs),
(306,99,o),
(392,144,o),
(392,256,cs),
(392,293,o),
(381,321,o),
(364,341,c),
(442,338,l),
(442,387,l),
(312,377,l),
(283,389,o),
(250,393,o),
(222,393,cs)
);
},
{
closed = 1;
nodes = (
(205,-27,o),
(306,-28,o),
(334,-35,cs),
(363,-42,o),
(395,-53,o),
(395,-96,cs),
(395,-180,o),
(294,-211,o),
(206,-209,cs),
(144,-208,o),
(85,-170,o),
(85,-124,cs),
(85,-83,o),
(135,-38,o),
(171,-32,cs)
);
},
{
closed = 1;
nodes = (
(130,312,o),
(157,359,o),
(222,358,cs),
(282,358,o),
(314,312,o),
(314,248,cs),
(314,182,o),
(282,134,o),
(222,134,cs),
(158,134,o),
(130,182,o),
(130,248,cs)
);
}
);
width = 450;
}
);
note = g;
unicode = 103;
},
{
glyphname = h;
lastChange = "2025-02-17 12:19:02 +0000";
layers = (
{
background = {
shapes = (
{
closed = 1;
nodes = (
(77,40,l),
(102,18,o),
(121,7,o),
(151,-3,c),
(225,40,l),
(187,52,o),
(173,60,o),
(149,80,c),
(149,342,l),
(150,341,l),
(173,347,o),
(185,349,o),
(203,349,cs),
(249,349,o),
(281,337,o),
(322,304,c),
(322,40,l),
(347,18,o),
(366,6,o),
(395,-3,c),
(470,40,l),
(432,52,o),
(417,60,o),
(394,80,c),
(394,344,l),
(344,384,o),
(317,395,o),
(269,395,cs),
(222,395,o),
(191,383,o),
(149,350,c),
(149,664,l),
(123,687,o),
(107,697,o),
(76,707,c),
(2,664,l),
(39,652,o),
(54,644,o),
(77,624,c)
);
}
);
};
layerId = m01;
shapes = (
{
closed = 1;
nodes = (
(324,2,o),
(393,2,o),
(462,0,c),
(462,16,l),
(400,16,o),
(394,42,o),
(394,104,cs),
(394,177,ls),
(395,317,o),
(385,337,o),
(368,357,cs),
(347,382,o),
(317,393,o),
(281,393,cs),
(227,393,o),
(185,363,o),
(149,322,c),
(149,665,l),
(100,657,o),
(56,645,o),
(9,631,c),
(9,615,l),
(65,615,o),
(77,593,o),
(77,528,cs),
(77,104,ls),
(77,43,o),
(71,16,o),
(10,16,c),
(10,0,l),
(79,2,o),
(148,2,o),
(217,0,c),
(217,16,l),
(155,16,o),
(149,42,o),
(149,104,cs),
(149,296,l),
(172,322,o),
(205,336,o),
(243,336,cs),
(267,336,o),
(288,330,o),
(305,310,cs),
(324,287,o),
(322,267,o),
(322,177,cs),
(322,104,ls),
(322,43,o),
(316,16,o),
(255,16,c),
(255,0,l)
);
}
);
width = 471;
}
);
note = h;
unicode = 104;
},
{
glyphname = i;
lastChange = "2025-02-16 15:09:55 +0000";
layers = (
{
layerId = m01;
shapes = (
{
closed = 1;
nodes = (
(86,2,o),
(155,2,o),
(224,0,c),
(224,16,l),
(162,16,o),
(156,42,o),
(156,104,cs),
(156,393,l),
(107,385,o),
(63,373,o),
(16,359,c),
(16,343,l),
(72,343,o),
(84,321,o),
(84,256,cs),
(84,104,ls),
(84,43,o),
(78,16,o),
(17,16,c),
(17,0,l)
);
},
{
pos = (-2,0);
ref = _i_punto;
}
);
width = 233;
}
);
note = i;
unicode = 105;
},
{
glyphname = j;
lastChange = "2025-02-17 12:29:18 +0000";
layers = (
{
background = {
shapes = (
{
closed = 1;
nodes = (
(84,-245,l),
(156,-204,l),
(156,344,l),
(130,367,o),
(114,377,o),
(83,387,c),
(9,344,l),
(46,332,o),
(61,324,o),
(84,304,c)
);
}
);
};
layerId = m01;
shapes = (
{
closed = 1;
nodes = (
(16,343,l),
(72,343,o),
(84,321,o),
(84,256,cs),
(84,-15,ls),
(85,-77,o),
(89,-138,o),
(71,-174,cs),
(58,-200,o),
(38,-219,o),
(17,-227,cs),
(15,-228,o),
(13,-229,o),
(11,-229,c),
(23,-251,l),
(88,-225,o),
(121,-175,o),
(145,-103,cs),
(155,-75,o),
(156,-28,o),
(156,-12,cs),
(156,67,l),
(156,393,l),
(107,385,o),
(63,373,o),
(16,359,c)
);
},
{
pos = (-2,0);
ref = _i_punto;
}
);
width = 225;
}
);
note = j;
unicode = 106;
},
{
glyphname = k;
lastChange = "2025-02-17 12:18:38 +0000";
layers = (
{
background = {
shapes = (
{
closed = 1;
nodes = (
(401,340,l),
(403,342,l),
(373,369,o),
(360,376,o),
(328,387,c),
(254,344,l),
(290,333,o),
(305,324,o),
(327,306,c),
(156,198,l),
(156,664,l),
(129,687,o),
(114,697,o),
(83,707,c),
(9,664,l),
(46,652,o),
(62,644,o),
(84,624,c),
(84,40,l),
(111,17,o),
(127,7,o),
(158,-3,c),
(232,40,l),
(195,52,o),
(179,60,o),
(156,80,c),
(156,190,l),
(157,189,l),
(157,189,l),
(332,38,ls),
(356,17,o),
(372,7,o),
(402,-3,c),
(477,40,l),
(438,53,o),
(423,61,o),
(398,83,cs),
(228,230,l)
);
}
);
};
layerId = m01;
shapes = (
{
closed = 1;
nodes = (
(16,615,l),
(72,615,o),
(84,593,o),
(84,528,cs),
(84,104,ls),
(84,43,o),
(78,16,o),
(17,16,c),
(17,0,l),
(86,2,o),
(155,2,o),
(224,0,c),
(224,16,l),
(162,16,o),
(156,42,o),
(156,104,cs),
(156,665,l),
(107,657,o),
(63,645,o),
(16,631,c)
);
},
{
closed = 1;
nodes = (
(332,2,o),
(401,2,o),
(470,0,c),
(470,16,l),
(453,16,o),
(437,17,o),
(416,36,cs),
(398,52,o),
(352,106,o),
(329,131,cs),
(236,235,l),
(319,314,ls),
(362,356,o),
(377,371,o),
(401,371,c),
(401,387,l),
(337,385,o),
(330,385,o),
(266,387,c),
(266,371,l),
(305,371,o),
(323,346,o),
(289,316,cs),
(220,254,l),
(167,207,l),
(266,98,ls),
(292,68,o),
(304,48,o),
(305,35,cs),
(305,21,o),
(290,16,o),
(263,16,c),
(263,0,l)
);
}
);
width = 470;
}
);
note = k;
unicode = 107;
},
{
glyphname = l;
lastChange = "2025-02-17 12:18:51 +0000";
layers = (
{
layerId = m01;
shapes = (
{
closed = 1;
nodes = (
(9,615,l),
(65,615,o),
(77,593,o),
(77,528,cs),
(77,104,ls),
(77,43,o),
(71,16,o),
(10,16,c),
(10,0,l),
(79,2,o),
(148,2,o),
(217,0,c),
(217,16,l),
(155,16,o),
(149,42,o),
(149,104,cs),
(149,665,l),
(100,657,o),
(56,645,o),
(9,631,c)
);
}
);
width = 226;
}
);
note = l;
unicode = 108;
},
{
glyphname = m;
lastChange = "2025-02-16 15:09:55 +0000";
layers = (
{
layerId = m01;
shapes = (
{
closed = 1;
nodes = (
(331,2,o),
(400,2,o),
(469,0,c),
(469,16,l),
(407,16,o),
(401,42,o),
(401,104,cs),
(401,177,ls),
(401,231,o),
(400,267,o),
(398,292,c),
(421,322,o),
(457,336,o),
(495,336,cs),
(519,336,o),
(540,330,o),
(557,310,cs),
(576,287,o),
(574,267,o),
(574,177,cs),
(574,104,ls),
(574,43,o),
(568,16,o),
(507,16,c),
(507,0,l),
(576,2,o),
(645,2,o),
(714,0,c),
(714,16,l),
(652,16,o),
(646,42,o),
(646,104,cs),
(646,177,ls),
(647,317,o),
(637,337,o),
(620,357,cs),
(599,382,o),
(569,393,o),
(533,393,cs),
(479,393,o),
(438,364,o),
(394,315,c),
(390,338,o),
(383,347,o),
(375,357,cs),
(354,382,o),
(324,393,o),
(288,393,cs),
(234,393,o),
(192,363,o),
(156,322,c),
(156,333,l),
(153,393,l),
(104,383,o),
(63,371,o),
(16,357,c),
(16,341,l),
(68,341,o),
(84,320,o),
(84,268,cs),
(84,104,ls),
(84,43,o),
(78,16,o),
(17,16,c),
(17,0,l),
(86,2,o),
(155,2,o),
(224,0,c),
(224,16,l),
(162,16,o),
(156,42,o),
(156,104,cs),
(156,296,l),
(179,322,o),
(212,336,o),
(250,336,cs),
(274,336,o),
(295,330,o),
(312,310,cs),
(331,287,o),
(329,267,o),
(329,177,cs),
(329,104,ls),
(329,43,o),
(323,16,o),
(262,16,c),
(262,0,l)
);
}
);
width = 723;
}
);
note = m;
unicode = 109;
},
{
glyphname = n;
lastChange = "2025-02-16 17:44:08 +0000";
layers = (
{
anchors = (
{
name = bottom;
pos = (239,0);
},
{
name = top;
pos = (239,387);
}
);
layerId = m01;
shapes = (
{
closed = 1;
nodes = (
(331,2,o),
(400,2,o),
(469,0,c),
(469,16,l),
(407,16,o),
(401,42,o),
(401,104,cs),
(401,177,ls),
(402,317,o),
(392,337,o),
(375,357,cs),
(354,382,o),
(324,393,o),
(288,393,cs),
(234,393,o),
(192,363,o),
(156,322,c),
(156,333,l),
(153,393,l),
(104,383,o),
(63,371,o),
(16,357,c),
(16,341,l),
(76,341,o),
(84,316,o),
(84,256,cs),
(84,104,ls),
(84,43,o),
(78,16,o),
(17,16,c),
(17,0,l),
(86,2,o),
(155,2,o),
(224,0,c),
(224,16,l),
(162,16,o),
(156,42,o),
(156,104,cs),
(156,296,l),
(179,322,o),
(212,336,o),
(250,336,cs),
(274,336,o),
(295,330,o),
(312,310,cs),
(331,287,o),
(329,267,o),
(329,177,cs),
(329,104,ls),
(329,43,o),
(323,16,o),
(262,16,c),
(262,0,l)
);
}
);
width = 478;
}
);
note = n;
unicode = 110;
},
{
glyphname = o;
lastChange = "2025-02-16 18:04:15 +0000";
layers = (
{
anchors = (
{
name = bottom;
pos = (241,0);
},
{
name = center;
pos = (241,194);
},
{
name = ogonek;
pos = (434,10);
},
{
name = top;
pos = (241,387);
},
{
name = topright;
pos = (462,387);
}
);
background = {
shapes = (
{
closed = 1;
nodes = (
(68,316,o),
(24,256,o),
(24,174,cs),
(24,74,o),
(108,-11,o),
(207,-11,cs),
(255,-11,o),
(286,1,o),
(330,36,c),
(413,68,o),
(456,128,o),
(456,210,cs),
(456,310,o),
(372,395,o),
(273,395,cs),
(225,395,o),
(194,383,o),
(150,347,c)
);
},
{
closed = 1;
nodes = (
(178,347,o),
(189,349,o),
(207,349,cs),
(307,349,o),
(384,273,o),
(384,174,cs),
(384,125,o),
(365,82,o),
(326,43,c),
(302,37,o),
(290,35,o),
(273,35,cs),
(173,35,o),
(96,111,o),
(96,210,cs),
(96,259,o),
(115,302,o),
(154,341,c)
);
}
);
};
layerId = m01;
shapes = (
{
closed = 1;
nodes = (
(111,90,o),
(156,30,o),
(241,29,c),
(329,30,o),
(372,90,o),
(372,192,c),
(372,288,o),
(329,357,o),
(241,358,c),
(156,359,o),
(110,288,o),
(110,192,c)
);
},
{
closed = 1;
nodes = (
(128,-6,o),
(31,80,o),
(31,197,cs),
(31,318,o),
(128,393,o),
(241,393,cs),
(352,393,o),
(451,318,o),
(451,197,cs),
(451,80,o),
(352,-6,o),
(241,-6,cs)
);
}
);
width = 482;
}
);
note = o;
unicode = 111;
},
{
glyphname = p;
lastChange = "2025-02-16 15:09:55 +0000";
layers = (
{
background = {
shapes = (
{
closed = 1;
nodes = (
(77,-240,l),
(102,-262,o),
(121,-273,o),
(151,-283,c),
(225,-240,l),
(187,-228,o),
(173,-220,o),
(149,-200,c),
(149,-2,l),
(150,-3,l),
(173,-9,o),
(185,-11,o),
(203,-11,cs),
(250,-11,o),
(282,1,o),
(326,36,c),
(408,68,o),
(452,128,o),
(452,210,cs),
(452,310,o),
(368,395,o),
(269,395,cs),
(221,395,o),
(190,383,o),
(146,347,c),
(147,346,ls),
(123,367,o),
(105,377,o),
(76,387,c),
(2,344,l),
(39,332,o),
(54,324,o),
(77,304,c)
);
},
{
closed = 1;
nodes = (
(173,347,o),
(185,349,o),
(203,349,cs),
(303,349,o),
(380,273,o),
(380,174,cs),
(380,125,o),
(361,82,o),
(322,43,c),
(298,37,o),
(286,35,o),
(269,35,cs),
(222,35,o),
(191,47,o),
(149,80,c),
(149,342,l),
(150,341,l)
);
}
);
};
layerId = m01;
shapes = (
{
closed = 1;
nodes = (
(77,-177,ls),
(77,-239,o),
(69,-264,o),
(10,-264,c),
(10,-280,l),
(81,-278,o),
(151,-278,o),
(222,-280,c),
(222,-264,l),
(157,-264,o),
(149,-242,o),
(149,-177,cs),
(149,12,l),
(159,6,o),
(186,-6,o),
(242,-6,cs),
(345,-6,o),
(454,73,o),
(454,213,cs),
(454,307,o),
(383,396,o),
(289,393,cs),
(238,392,o),
(187,365,o),
(149,322,c),
(149,393,l),
(100,385,o),
(56,373,o),
(9,359,c),
(9,343,l),
(65,343,o),
(77,321,o),
(77,256,cs)
);
},
{
closed = 1;
nodes = (
(149,295,l),
(172,321,o),
(205,337,o),
(243,337,cs),
(330,337,o),
(375,261,o),
(375,179,cs),
(375,93,o),
(328,27,o),
(252,26,cs),
(207,25,o),
(169,45,o),
(149,61,c)
);
}
);
width = 485;
}
);
note = p;
unicode = 112;
},
{
glyphname = q;
lastChange = "2025-02-16 15:09:55 +0000";
layers = (
{
background = {
shapes = (
{
closed = 1;
nodes = (
(359,384,o),
(331,395,o),
(283,395,cs),
(235,395,o),
(204,383,o),
(160,347,c),
(78,316,o),
(34,256,o),
(34,174,cs),
(34,74,o),
(118,-11,o),
(217,-11,cs),
(263,-11,o),
(295,1,o),
(336,34,c),
(336,-240,l),
(362,-262,o),
(380,-273,o),
(410,-283,c),
(484,-240,l),
(447,-228,o),
(432,-220,o),
(408,-200,c),
(408,344,l)
);
},
{
closed = 1;
nodes = (
(313,37,o),
(301,35,o),
(283,35,cs),
(183,35,o),
(106,111,o),
(106,210,cs),
(106,259,o),
(125,302,o),
(164,341,c),
(188,347,o),
(199,349,o),
(217,349,cs),
(263,349,o),
(295,337,o),
(336,304,c),
(336,42,l),
(336,43,l)
);
}
);
};
layerId = m01;
shapes = (
{
closed = 1;
nodes = (
(475,-264,l),
(414,-264,o),
(408,-237,o),
(408,-176,cs),
(408,393,l),
(375,368,l),
(351,377,l),
(351,377,o),
(315,393,o),
(243,393,cs),
(140,393,o),
(31,314,o),
(31,174,cs),
(31,80,o),
(100,-6,o),
(192,-6,cs),
(246,-6,o),
(300,24,o),
(336,65,c),
(336,-176,ls),
(336,-242,o),
(328,-264,o),
(263,-264,c),
(263,-280,l),
(334,-278,o),
(404,-278,o),
(475,-280,c)
);
},
{
closed = 1;
nodes = (
(110,294,o),
(157,360,o),
(233,361,cs),
(278,362,o),
(316,342,o),
(336,326,c),
(336,92,l),
(313,66,o),
(280,50,o),
(242,50,cs),
(155,50,o),
(110,126,o),
(110,208,cs)
);
}
);
width = 477;
}
);
note = q;
unicode = 113;
},
{
glyphname = r;
lastChange = "2025-02-16 15:09:55 +0000";
layers = (
{
background = {
shapes = (
{
closed = 1;
nodes = (
(84,40,l),
(109,18,o),
(128,7,o),
(158,-3,c),
(232,40,l),
(194,52,o),
(180,60,o),
(156,80,c),
(156,342,l),
(157,341,l),
(180,347,o),
(192,349,o),
(210,349,cs),
(258,349,o),
(287,338,o),
(333,301,c),
(404,342,l),
(352,384,o),
(324,395,o),
(276,395,cs),
(228,395,o),
(197,383,o),
(153,347,c),
(154,346,ls),
(130,367,o),
(112,377,o),
(83,387,c),
(9,344,l),
(46,332,o),
(61,324,o),
(84,304,c)
);
}
);
};
layerId = m01;
shapes = (
{
closed = 1;
nodes = (
(88,2,o),
(158,2,o),
(229,0,c),
(229,16,l),
(163,16,o),
(156,39,o),
(156,104,cs),
(156,283,l),
(171,301,o),
(192,321,o),
(206,321,cs),
(233,321,o),
(247,307,o),
(269,292,c),
(299,306,o),
(316,324,o),
(321,340,c),
(310,365,o),
(287,386,o),
(245,386,cs),
(222,386,o),
(182,342,o),
(156,311,c),
(156,331,l),
(153,391,l),
(104,381,o),
(63,369,o),
(16,355,c),
(16,339,l),
(76,339,o),
(84,314,o),
(84,254,cs),
(84,104,ls),
(84,43,o),
(78,16,o),
(17,16,c),
(17,0,l)
);
}
);
width = 321;
}
);
note = r;
unicode = 114;
},
{
glyphname = s;
lastChange = "2025-02-16 20:48:09 +0000";
layers = (
{
annotations = (
{
pos = (54.408,106.987);
type = Plus;
}
);
layerId = m01;
shapes = (
{
closed = 1;
nodes = (
(281,320,o),
(281,346,o),
(283,372,c),
(249,388,o),
(213,393,o),
(175,393,cs),
(111,393,o),
(38,354,o),
(36,278,cs),
(33,204,o),
(106,186,o),
(133,177,cs),
(160,168,o),
(228,151,o),
(227,99,cs),
(226,47,o),
(187,23,o),
(139,24,cs),
(91,25,o),
(64,69,o),
(50,123,c),
(31,123,l),
(32,91,o),
(32,60,o),
(31,28,c),
(56,12,o),
(100,-6,o),
(137,-6,cs),
(204,-6,o),
(298,21,o),
(298,119,cs),
(298,204,o),
(230,221,o),
(198,232,cs),
(167,243,o),
(103,256,o),
(103,303,cs),
(103,344,o),
(145,364,o),
(175,364,cs),
(213,364,o),
(241,353,o),
(269,294,c),
(283,294,l)
);
}
);
width = 329;
}
);
note = s;
unicode = 115;
},
{
glyphname = t;
lastChange = "2025-02-17 13:01:40 +0000";
layers = (
{
annotations = (
{
pos = (55.668,348.607);
type = Plus;
}
);
background = {
shapes = (
{
closed = 1;
nodes = (
(122,1,o),
(151,-11,o),
(199,-11,cs),
(248,-11,o),
(276,0,o),
(324,39,c),
(321,44,l),
(318,44,o),
(314,43,o),
(314,42,c),
(296,37,o),
(283,35,o),
(264,35,cs),
(218,35,o),
(186,47,o),
(145,80,c),
(145,342,l),
(146,341,l),
(252,341,l),
(325,382,l),
(322,387,l),
(145,387,l),
(145,429,l),
(0,346,l),
(3,341,l),
(73,341,l),
(73,40,l)
);
}
);
};
layerId = m01;
shapes = (
{
closed = 1;
nodes = (
(284,75,l),
(263,57,o),
(235,47,o),
(210,47,cs),
(154,47,o),
(145,80,o),
(145,210,cs),
(145,338,l),
(286,338,l),
(286,387,l),
(145,387,l),
(145,482,l),
(124,482,l),
(100,405,o),
(46,376,o),
(0,354,c),
(0,338,l),
(73,338,l),
(73,210,ls),
(73,167,o),
(73,136,o),
(76,94,cs),
(80,46,o),
(106,-6,o),
(172,-6,cs),
(213,-5,o),
(256,20,o),
(293,58,c)
);
}
);
width = 293;
}
);
note = t;
unicode = 116;
},
{
glyphname = u;
lastChange = "2025-02-16 18:02:40 +0000";
layers = (
{
anchors = (
{
name = bottom;
pos = (239,0);
},
{
name = ogonek;
pos = (429,10);
},
{
name = top;
pos = (239,387);
},
{
name = topright;
pos = (457,387);
}
);
layerId = m01;
shapes = (
{
closed = 1;
nodes = (
(461,29,l),
(444,31,o),
(422,33,o),
(407,49,cs),
(395,62,o),
(393,83,o),
(393,112,cs),
(393,393,l),
(344,385,o),
(295,373,o),
(248,359,c),
(248,343,l),
(309,343,o),
(321,319,o),
(321,256,cs),
(321,90,l),
(298,64,o),
(265,48,o),
(227,48,cs),
(203,48,o),
(182,53,o),
(165,73,cs),
(146,96,o),
(148,119,o),
(148,209,cs),
(148,393,l),
(99,385,o),
(55,373,o),
(8,359,c),
(8,343,l),
(64,343,o),
(76,321,o),
(76,256,cs),
(76,209,ls),
(75,69,o),
(85,49,o),
(102,29,cs),
(123,4,o),
(153,-6,o),
(189,-6,cs),
(243,-6,o),
(285,23,o),
(321,64,c),
(321,54,l),
(324,-6,l),
(373,0,o),
(414,6,o),
(461,13,c)
);
}
);
width = 477;
}
);
note = u;
unicode = 117;
},
{
glyphname = v;
lastChange = "2025-02-16 15:09:55 +0000";
layers = (
{
background = {
shapes = (
{
closed = 1;
nodes = (
(223,-12,l),
(381,343,l),
(354,367,o),
(338,376,o),
(307,387,c),
(247,327,l),
(281,316,o),
(297,307,o),
(319,289,c),
(243,119,l),
(133,346,l),
(109,367,o),
(92,377,o),
(62,387,c),
(2,327,l),
(38,315,o),
(53,307,o),
(78,286,c)
);
}
);
};
layerId = m01;
shapes = (
{
closed = 1;
nodes = (
(0,371,l),
(24,368,o),
(39,364,o),
(51,337,c),
(196,0,l),
(206,0,l),
(338,342,l),
(348,364,o),
(364,368,o),
(385,371,c),
(385,387,l),
(321,385,o),
(314,385,o),
(250,387,c),
(250,371,l),
(291,367,o),
(304,356,o),
(282,299,cs),
(218,133,l),
(155,296,l),
(128,353,o),
(142,367,o),
(183,371,c),
(183,387,l),
(119,385,o),
(64,385,o),
(0,387,c)
);
}
);
width = 385;
}
);
note = v;
unicode = 118;
},
{
glyphname = w;
lastChange = "2025-02-16 15:09:55 +0000";
layers = (
{
background = {
shapes = (
{
closed = 1;
nodes = (
(353,367,o),
(336,377,o),
(307,387,c),
(247,327,l),
(281,316,o),
(297,307,o),
(319,289,c),
(243,119,l),
(133,346,l),
(109,366,o),
(90,378,o),
(62,387,c),
(2,327,l),
(37,316,o),
(54,306,o),
(78,286,c),
(223,-12,l),
(340,250,l),
(468,-12,l),
(626,343,l),
(599,367,o),
(582,377,o),
(552,387,c),
(492,327,l),
(525,316,o),
(542,307,o),
(564,289,c),
(488,119,l),
(378,346,l)
);
}
);
};
layerId = m01;
shapes = (
{
closed = 1;
nodes = (
(0,371,l),
(24,368,o),
(39,364,o),
(51,337,c),
(196,0,l),
(206,0,l),
(348,342,l),
(358,364,o),
(374,368,o),
(395,371,c),
(395,387,l),
(331,385,o),
(324,385,o),
(260,387,c),
(260,371,l),
(301,367,o),
(317,356,o),
(292,299,cs),
(218,133,l),
(155,296,l),
(128,353,o),
(142,367,o),
(183,371,c),
(183,387,l),
(119,385,o),
(64,385,o),
(0,387,c)
);
},
{
closed = 1;
nodes = (
(233,371,l),
(257,368,o),
(272,364,o),
(284,337,c),
(429,0,l),
(439,0,l),
(581,342,l),
(591,364,o),
(607,368,o),
(628,371,c),
(628,387,l),
(564,385,o),
(557,385,o),
(493,387,c),
(493,371,l),
(534,367,o),
(550,356,o),
(525,299,cs),
(451,133,l),
(388,296,l),
(361,353,o),
(375,367,o),
(416,371,c),
(416,387,l),
(352,385,o),
(297,385,o),
(233,387,c)
);
}
);
width = 628;
}
);
note = w;
unicode = 119;
},
{
glyphname = x;
lastChange = "2025-02-22 16:31:50 +0000";
layers = (
{
background = {
shapes = (
{
closed = 1;
nodes = (
(233,224,l),
(234,222,l),
(117,347,l),
(109,353,ls),
(91,368,o),
(72,379,o),
(47,387,c),
(-13,327,l),
(22,316,o),
(39,306,o),
(63,285,c),
(63,286,l),
(174,167,l),
(104,100,l),
(46,42,l),
(74,17,o),
(89,8,o),
(121,-3,c),
(181,57,l),
(147,68,o),
(131,76,o),
(110,93,c),
(180,160,l),
(179,162,l),
(296,37,l),
(299,35,o),
(302,32,o),
(303,31,cs),
(321,16,o),
(339,6,o),
(366,-3,c),
(425,57,l),
(389,69,o),
(373,77,o),
(349,99,cs),
(350,98,l),
(239,217,l),
(308,284,l),
(367,342,l),
(339,367,o),
(323,376,o),
(292,387,c),
(232,327,l),
(265,316,o),
(281,308,o),
(302,290,c)
);
}
);
};
layerId = m01;
shapes = (
{
closed = 1;
nodes = (
(74,72,ls),
(48,43,o),
(24,18,o),
(0,16,c),
(0,0,l),
(64,2,o),
(81,2,o),
(145,0,c),
(145,16,l),
(103,18,o),
(87,36,o),
(112,65,cs),
(332,315,ls),
(358,344,o),
(382,369,o),
(406,371,c),
(406,387,l),
(342,385,o),
(325,385,o),
(261,387,c),
(261,371,l),
(303,369,o),
(319,351,o),
(294,322,cs)
);
},
{
closed = 1;
nodes = (
(244,84,ls),
(295,14,o),
(264,16,o),
(223,16,c),
(223,0,l),
(287,2,o),
(342,2,o),
(406,0,c),
(406,16,l),
(382,16,o),
(369,22,o),
(349,49,cs),
(162,303,ls),
(112,371,o),
(142,371,o),
(183,371,c),
(183,387,l),
(119,385,o),
(64,385,o),
(0,387,c),
(0,371,l),
(24,371,o),
(38,364,o),
(57,338,cs)
);
},
{
closed = 1;
nodes = (
(821,371,l),
(845,368,o),
(860,364,o),
(872,337,c),
(1017,0,l),
(1027,0,l),
(1169,342,l),
(1179,364,o),
(1195,368,o),
(1216,371,c),
(1216,387,l),
(1152,385,o),
(1145,385,o),
(1081,387,c),
(1081,371,l),
(1122,367,o),
(1138,356,o),
(1113,299,cs),
(1039,133,l),
(976,296,l),
(949,353,o),
(963,367,o),
(1004,371,c),
(1004,387,l),
(940,385,o),
(885,385,o),
(821,387,c)
);
}
);
width = 406;
}
);
note = x;
unicode = 120;
},
{
glyphname = y;
lastChange = "2025-02-22 16:00:09 +0000";
layers = (
{
background = {
shapes = (
{
closed = 1;
nodes = (
(203,26,l),
(202,29,l),
(83,-239,l),
(109,-262,o),
(127,-273,o),
(157,-283,c),
(217,-223,l),
(182,-212,o),
(168,-204,o),
(145,-185,c),
(380,343,l),
(353,367,o),
(337,376,o),
(306,387,c),
(246,327,l),
(280,316,o),
(296,307,o),
(318,289,c),
(242,119,l),
(132,346,l),
(108,367,o),
(91,377,o),
(61,387,c),
(1,327,l),
(37,315,o),
(52,307,o),
(77,286,c)
);
}
);
};
layerId = m01;
shapes = (
{
closed = 1;
nodes = (
(0,371,l),
(24,368,o),
(39,364,o),
(51,337,c),
(196,0,l),
(206,0,l),
(338,342,l),
(348,364,o),
(364,368,o),
(385,371,c),
(385,387,l),
(321,385,o),
(314,385,o),
(250,387,c),
(250,371,l),
(291,367,o),
(304,356,o),
(282,299,cs),
(218,133,l),
(155,296,l),
(128,353,o),
(142,367,o),
(183,371,c),
(183,387,l),
(119,385,o),
(64,385,o),
(0,387,c)
);
},
{
closed = 1;
nodes = (
(-12,-252,o),
(13,-280,o),
(58,-280,c),
(94,-280,o),
(113,-247,o),
(145,-161,c),
(162,-115,l),
(206,0,l),
(181,40,l),
(106,-148,l),
(68,-233,o),
(39,-235,o),
(13,-207,c)
);
}
);
width = 385;
}
);
note = y;
unicode = 121;
},
{
glyphname = z;
lastChange = "2025-02-16 15:09:55 +0000";
layers = (
{
background = {
shapes = (
{
closed = 1;
nodes = (
(287,324,l),
(28,-3,l),
(295,-3,l),
(354,56,l),
(352,60,l),
(97,60,l),
(356,387,l),
(90,387,l),
(30,328,l),
(33,324,l)
);
}
);
};
layerId = m01;
shapes = (
{
closed = 1;
nodes = (
(154,1,o),
(278,1,o),
(401,0,c),
(400,41,o),
(400,82,o),
(401,123,c),
(383,123,l),
(383,64,o),
(354,33,o),
(282,32,cs),
(234,31,o),
(187,31,o),
(139,32,c),
(410,387,l),
(293,386,o),
(176,386,o),
(59,387,c),
(60,346,o),
(60,305,o),
(59,264,c),
(77,264,l),
(77,334,o),
(106,355,o),
(183,355,cs),
(223,356,o),
(263,356,o),
(303,355,c),
(31,0,l)
);
}
);
width = 441;
}
);
note = z;
unicode = 122;
},
{
glyphname = dotlessi;
lastChange = "2025-02-16 17:17:52 +0000";
layers = (
{
anchors = (
{
name = bottom;
pos = (123,0);
},
{
name = ogonek;
pos = (226,0);
},
{
name = top;
pos = (112,387);
}
);
layerId = m01;
shapes = (
{
closed = 1;
nodes = (
(88,2,o),
(157,2,o),
(226,0,c),
(226,16,l),
(164,16,o),
(158,42,o),
(158,104,cs),
(158,393,l),
(109,385,o),
(65,373,o),
(18,359,c),
(18,343,l),
(74,343,o),
(86,321,o),
(86,256,cs),
(86,104,ls),
(86,43,o),
(80,16,o),
(19,16,c),
(19,0,l)
);
}
);
width = 245;
}
);
unicode = 305;
},
{
glyphname = idieresis;
lastChange = "2025-02-16 17:58:48 +0000";
layers = (
{
layerId = m01;
shapes = (
{
pos = (7,0);
ref = dotlessi;
},
{
closed = 1;
nodes = (
(75,484,o),
(95,504,o),
(95,529,cs),
(95,554,o),
(75,574,o),
(50,574,cs),
(25,574,o),
(5,554,o),
(5,529,cs),
(5,504,o),
(25,484,o),
(50,484,cs)
);
},
{
closed = 1;
nodes = (
(236,484,o),
(256,504,o),
(256,529,cs),
(256,554,o),
(236,574,o),
(211,574,cs),
(186,574,o),
(166,554,o),
(166,529,cs),
(166,504,o),
(186,484,o),
(211,484,cs)
);
}
);
width = 264;
}
);
unicode = 239;
},
{
glyphname = jdotless;
lastChange = "2025-02-16 13:33:29 +0000";
layers = (
{
layerId = m01;
shapes = (
{
closed = 1;
nodes = (
(18,343,l),
(74,343,o),
(86,321,o),
(86,256,cs),
(86,-15,ls),
(87,-77,o),
(91,-138,o),
(73,-174,cs),
(60,-200,o),
(40,-219,o),
(19,-227,cs),
(17,-228,o),
(15,-229,o),
(13,-229,c),
(25,-251,l),
(90,-225,o),
(123,-175,o),
(147,-103,cs),
(157,-75,o),
(158,-28,o),
(158,-12,cs),
(158,67,l),
(158,393,l),
(109,385,o),
(65,373,o),
(18,359,c)
);
}
);
width = 232;
}
);
unicode = 567;
},
{
glyphname = f_f;
lastChange = "2025-02-16 21:12:40 +0000";
layers = (
{
layerId = m01;
shapes = (
{
closed = 1;
nodes = (
(86,2,o),
(166,2,o),
(235,0,c),
(235,16,l),
(166,16,o),
(156,34,o),
(156,101,cs),
(156,338,l),
(359,338,l),
(359,101,ls),
(359,37,o),
(347,16,o),
(292,16,c),
(292,0,l),
(361,2,o),
(441,2,o),
(510,0,c),
(510,16,l),
(441,16,o),
(431,34,o),
(431,101,cs),
(431,338,l),
(605,338,l),
(605,387,l),
(431,387,l),
(431,457,ls),
(431,519,o),
(437,580,o),
(455,616,cs),
(473,652,o),
(504,675,o),
(535,672,cs),
(566,669,o),
(571,653,o),
(580,643,cs),
(589,633,o),
(605,614,o),
(627,616,cs),
(649,618,o),
(666,633,o),
(664,654,cs),
(662,675,o),
(651,686,o),
(640,692,cs),
(629,698,o),
(589,716,o),
(532,702,cs),
(447,681,o),
(409,627,o),
(380,545,cs),
(370,517,o),
(363,468,o),
(361,454,cs),
(359,437,o),
(359,411,o),
(358,387,c),
(156,387,l),
(156,457,ls),
(156,519,o),
(162,580,o),
(180,616,cs),
(198,652,o),
(229,675,o),
(260,672,cs),
(291,669,o),
(296,653,o),
(305,643,cs),
(314,633,o),
(330,614,o),
(352,616,cs),
(374,618,o),
(391,633,o),
(389,654,cs),
(387,675,o),
(376,686,o),
(365,692,cs),
(354,698,o),
(314,716,o),
(257,702,cs),
(172,681,o),
(134,627,o),
(105,545,cs),
(95,517,o),
(88,468,o),
(86,454,cs),
(84,436,o),
(84,409,o),
(83,384,c),
(17,354,l),
(17,338,l),
(84,338,l),
(84,101,ls),
(84,37,o),
(72,16,o),
(17,16,c),
(17,0,l)
);
}
);
width = 613;
}
);
},
{
glyphname = f_i;
lastChange = "2025-02-16 21:09:59 +0000";
layers = (
{
layerId = m01;
shapes = (
{
closed = 1;
nodes = (
(87,2,o),
(167,2,o),
(236,0,c),
(236,16,l),
(167,16,o),
(157,34,o),
(157,101,cs),
(157,338,l),
(269,338,ls),
(325,338,o),
(337,316,o),
(337,251,cs),
(337,104,ls),
(337,43,o),
(331,16,o),
(270,16,c),
(270,0,l),
(339,2,o),
(408,2,o),
(477,0,c),
(477,16,l),
(415,16,o),
(409,42,o),
(409,104,cs),
(409,387,l),
(157,387,l),
(157,457,ls),
(157,519,o),
(163,580,o),
(181,616,cs),
(199,652,o),
(230,672,o),
(261,672,cs),
(357,672,o),
(322,596,o),
(322,569,cs),
(322,542,o),
(343,521,o),
(366,521,cs),
(404,521,o),
(422,543,o),
(422,573,cs),
(422,632,o),
(353,704,o),
(274,704,cs),
(195,704,o),
(136,631,o),
(106,545,cs),
(96,517,o),
(89,468,o),
(87,454,cs),
(85,436,o),
(85,409,o),
(84,384,c),
(18,354,l),
(18,338,l),
(85,338,l),
(85,101,ls),
(85,37,o),
(73,16,o),
(18,16,c),
(18,0,l)
);
}
);
width = 481;
}
);
},
{
glyphname = f_l;
lastChange = "2025-02-16 21:18:01 +0000";
layers = (
{
layerId = m01;
shapes = (
{
closed = 1;
nodes = (
(86,2,o),
(166,2,o),
(235,0,c),
(235,16,l),
(166,16,o),
(156,34,o),
(156,101,cs),
(156,338,l),
(330,338,l),
(330,387,l),
(156,387,l),
(156,457,ls),
(156,519,o),
(162,580,o),
(180,616,cs),
(204,665,o),
(243,673,o),
(291,673,cs),
(350,667,o),
(363,649,o),
(363,582,cs),
(363,104,ls),
(363,43,o),
(357,16,o),
(296,16,c),
(296,0,l),
(365,2,o),
(434,2,o),
(503,0,c),
(503,16,l),
(441,16,o),
(435,42,o),
(435,104,cs),
(435,719,l),
(404,714,o),
(376,707,o),
(347,700,c),
(328,706,o),
(296,712,o),
(257,702,cs),
(172,681,o),
(134,627,o),
(105,545,cs),
(95,517,o),
(88,468,o),
(86,454,cs),
(84,436,o),
(84,409,o),
(83,384,c),
(17,354,l),
(17,338,l),
(84,338,l),
(84,101,ls),
(84,37,o),
(72,16,o),
(17,16,c),
(17,0,l)
);
}
);
width = 600;
}
);
},
{
glyphname = zero;
lastChange = "2025-02-16 16:38:55 +0000";
layers = (
{
layerId = m01;
shapes = (
{
closed = 1;
nodes = (
(121,149,o),
(152,28,o),
(232,28,c),
(320,29,o),
(348,140,o),
(348,311,c),
(348,468,o),
(320,593,o),
(232,594,c),
(152,596,o),
(121,488,o),
(121,311,c)
);
},
{
closed = 1;
nodes = (
(95,-6,o),
(40,121,o),
(40,311,cs),
(40,492,o),
(95,626,o),
(232,626,cs),
(375,626,o),
(429,503,o),
(429,311,cs),
(429,142,o),
(375,-6,o),
(232,-6,cs)
);
}
);
width = 469;
}
);
unicode = 48;
},
{
glyphname = one;
lastChange = "2025-02-15 08:11:22 +0000";
layers = (
{
layerId = m01;
shapes = (
{
closed = 1;
nodes = (
(198,361,o),
(198,233,o),
(198,104,cs),
(198,23,o),
(154,16,o),
(40,16,c),
(40,0,l),
(109,2,o),
(360,2,o),
(429,0,c),
(429,16,l),
(305,16,o),
(270,23,o),
(270,104,cs),
(270,237,o),
(270,317,o),
(270,450,cs),
(270,554,o),
(273,603,o),
(274,617,c),
(267,626,l),
(56,557,l),
(56,541,l),
(190,569,o),
(199,562,o),
(198,490,cs)
);
}
);
width = 469;
}
);
unicode = 49;
},
{
glyphname = two;
lastChange = "2025-02-15 15:26:03 +0000";
layers = (
{
background = {
shapes = (
{
closed = 1;
nodes = (
(57,526,l),
(99,556,o),
(140,569,o),
(186,569,cs),
(257,569,o),
(300,526,o),
(300,465,cs),
(300,427,o),
(283,393,o),
(241,371,cs),
(219,360,o),
(190,352,o),
(172,348,cs),
(158,345,o),
(150,344,o),
(141,343,c),
(146,310,l),
(157,312,o),
(161,312,o),
(172,312,cs),
(185,312,o),
(213,310,o),
(237,301,cs),
(301,279,o),
(338,226,o),
(338,180,cs),
(338,106,o),
(306,43,o),
(190,43,cs),
(154,43,o),
(87,62,o),
(57,96,c),
(40,71,l),
(89,25,o),
(166,0,o),
(208,0,cs),
(359,0,o),
(429,83,o),
(429,188,cs),
(429,266,o),
(368,318,o),
(274,339,c),
(342,366,o),
(389,414,o),
(389,491,cs),
(389,557,o),
(320,616,o),
(225,616,cs),
(170,616,o),
(92,596,o),
(40,544,c)
);
}
);
};
layerId = m01;
shapes = (
{
closed = 1;
nodes = (
(40,0,l),
(124,0,o),
(208,2,o),
(292,2,c),
(338,2,o),
(383,0,o),
(429,0,c),
(427,52,o),
(427,80,o),
(429,129,c),
(412,129,l),
(412,73,o),
(390,65,o),
(325,63,cs),
(258,61,o),
(190,61,o),
(123,61,c),
(350,243,o),
(390,343,o),
(390,453,cs),
(390,567,o),
(320,626,o),
(225,626,cs),
(169,626,o),
(93,593,o),
(40,544,c),
(57,526,l),
(99,556,o),
(148,573,o),
(191,572,cs),
(251,570,o),
(300,531,o),
(300,438,cs),
(300,334,o),
(258,217,o),
(40,37,c)
);
}
);
width = 469;
}
);
unicode = 50;
},
{
glyphname = three;
lastChange = "2025-02-15 09:16:28 +0000";
layers = (
{
background = {
shapes = (
{
closed = 1;
nodes = (
(7,-32,l),
(226,4,o),
(381,124,o),
(381,258,cs),
(381,326,o),
(326,374,o),
(248,374,cs),
(224,374,o),
(198,372,o),
(174,367,c),
(281,411,o),
(355,480,o),
(355,537,cs),
(355,589,o),
(301,625,o),
(224,625,cs),
(163,625,o),
(80,591,o),
(25,544,c),
(46,519,l),
(88,547,o),
(144,569,o),
(182,569,cs),
(233,569,o),
(266,544,o),
(266,508,cs),
(266,448,o),
(184,382,o),
(63,347,c),
(84,318,l),
(113,327,o),
(148,334,o),
(167,334,cs),
(249,334,o),
(300,290,o),
(300,228,cs),
(300,125,o),
(178,32,o),
(-5,2,c)
);
}
);
};
layerId = m01;
shapes = (
{
closed = 1;
nodes = (
(57,526,l),
(99,559,o),
(144,569,o),
(190,569,cs),
(254,569,o),
(300,520,o),
(300,465,cs),
(300,389,o),
(237,354,o),
(172,340,cs),
(158,337,o),
(150,336,o),
(141,334,c),
(150,303,l),
(155,304,o),
(161,305,o),
(172,306,cs),
(242,312,o),
(338,265,o),
(338,180,cs),
(338,106,o),
(306,37,o),
(190,37,cs),
(154,37,o),
(87,56,o),
(57,90,c),
(40,65,l),
(89,19,o),
(166,-6,o),
(208,-6,cs),
(359,-6,o),
(429,83,o),
(429,188,cs),
(429,266,o),
(368,318,o),
(274,339,c),
(342,366,o),
(389,414,o),
(389,491,cs),
(389,559,o),
(327,625,o),
(220,625,cs),
(165,625,o),
(92,596,o),
(40,544,c)
);
}
);
width = 469;
}
);
unicode = 51;
},
{
glyphname = four;
lastChange = "2025-02-15 15:26:37 +0000";
layers = (
{
layerId = m01;
shapes = (
{
closed = 1;
nodes = (
(289,182,l),
(289,104,ls),
(289,43,o),
(283,16,o),
(222,16,c),
(222,0,l),
(291,2,o),
(360,2,o),
(429,0,c),
(429,16,l),
(367,16,o),
(361,42,o),
(361,104,cs),
(361,182,l),
(429,182,l),
(429,233,l),
(361,233,l),
(361,613,l),
(362,614,l),
(312,614,l),
(40,219,l),
(40,182,l)
);
},
{
closed = 1;
nodes = (
(289,508,l),
(289,233,l),
(100,233,l)
);
}
);
width = 469;
}
);
unicode = 52;
},
{
glyphname = five;
lastChange = "2025-02-15 15:26:47 +0000";
layers = (
{
layerId = m01;
shapes = (
{
closed = 1;
nodes = (
(139,616,l),
(101,364,l),
(265,364,o),
(337,277,o),
(340,193,cs),
(343,114,o),
(286,37,o),
(190,37,cs),
(154,37,o),
(87,56,o),
(57,90,c),
(40,65,l),
(89,19,o),
(166,-6,o),
(208,-6,cs),
(352,-6,o),
(426,89,o),
(427,189,cs),
(427,301,o),
(336,418,o),
(151,413,c),
(173,555,l),
(249,557,o),
(324,555,o),
(400,554,c),
(402,574,o),
(405,596,o),
(411,616,c),
(292,615,l),
(182,616,l)
);
}
);
width = 467;
}
);
unicode = 53;
},
{
glyphname = six;
lastChange = "2025-02-15 10:41:25 +0000";
layers = (
{
layerId = m01;
shapes = (
{
closed = 1;
nodes = (
(352,286,o),
(306,326,o),
(252,329,cs),
(203,332,o),
(147,303,o),
(117,275,c),
(115,305,l),
(156,358,o),
(216,385,o),
(273,385,cs),
(355,383,o),
(429,323,o),
(429,192,cs),
(429,98,o),
(375,-6,o),
(236,-6,cs),
(95,-6,o),
(40,121,o),
(40,311,cs),
(40,492,o),
(143,626,o),
(284,626,cs),
(330,626,o),
(367,612,o),
(396,587,c),
(396,488,l),
(379,488,l),
(379,547,o),
(338,594,o),
(284,594,c),
(200,596,o),
(121,496,o),
(121,311,c),
(121,149,o),
(152,25,o),
(250,25,c),
(301,26,o),
(352,72,o),
(352,168,cs)
);
}
);
width = 469;
}
);
unicode = 54;
},
{
glyphname = seven;
lastChange = "2025-02-15 15:27:11 +0000";
layers = (
{
annotations = (
{
pos = (-99.644,716.497);
type = Plus;
}
);
layerId = m01;
shapes = (
{
closed = 1;
nodes = (
(429,617,l),
(345,617,o),
(261,615,o),
(177,615,c),
(131,615,o),
(86,617,o),
(40,617,c),
(42,565,o),
(42,533,o),
(40,484,c),
(57,484,l),
(57,540,o),
(79,548,o),
(144,550,cs),
(218,552,o),
(291,552,o),
(365,552,c),
(283,411,o),
(182,229,o),
(40,0,c),
(80,-24,l),
(235,225,o),
(258,273,o),
(429,576,c)
);
}
);
width = 469;
}
);
unicode = 55;
},
{
glyphname = eight;
lastChange = "2025-02-16 22:12:32 +0000";
layers = (
{
layerId = m01;
shapes = (
{
closed = 1;
nodes = (
(405,579,o),
(326,624,o),
(229,624,cs),
(141,624,o),
(64,571,o),
(64,468,cs),
(64,272,o),
(351,279,o),
(351,136,cs),
(351,74,o),
(300,33,o),
(235,33,c),
(233,-7,l),
(336,-7,o),
(429,53,o),
(429,176,cs),
(429,343,o),
(135,354,o),
(139,492,cs),
(140,550,o),
(170,585,o),
(230,585,cs),
(288,585,o),
(340,549,o),
(340,492,cs),
(340,295,o),
(40,348,o),
(40,151,cs),
(40,53,o),
(113,-7,o),
(233,-7,c),
(235,33,l),
(168,33,o),
(106,72,o),
(106,158,cs),
(106,339,o),
(405,288,o),
(405,480,cs)
);
}
);
width = 469;
}
);
unicode = 56;
},
{
glyphname = nine;
lastChange = "2025-02-15 15:27:35 +0000";
layers = (
{
layerId = m01;
shapes = (
{
closed = 1;
nodes = (
(117,334,o),
(163,294,o),
(217,291,cs),
(266,288,o),
(322,317,o),
(352,345,c),
(354,315,l),
(313,262,o),
(253,235,o),
(196,235,cs),
(114,237,o),
(40,297,o),
(40,428,cs),
(40,522,o),
(94,626,o),
(233,626,cs),
(374,626,o),
(429,499,o),
(429,309,cs),
(429,128,o),
(326,-6,o),
(185,-6,cs),
(139,-6,o),
(102,8,o),
(73,33,c),
(74,66,o),
(74,99,o),
(73,132,c),
(90,132,l),
(90,73,o),
(131,26,o),
(185,26,c),
(269,24,o),
(348,124,o),
(348,309,c),
(348,471,o),
(317,595,o),
(219,595,c),
(168,594,o),
(117,548,o),
(117,452,cs)
);
}
);
width = 469;
}
);
unicode = 57;
},
{
glyphname = zero.osf;
lastChange = "2025-02-17 08:12:59 +0000";
layers = (
{
layerId = m01;
shapes = (
{
closed = 1;
nodes = (
(119,115,o),
(140,27,o),
(219,27,c),
(298,28,o),
(320,108,o),
(320,226,c),
(320,334,o),
(298,414,o),
(219,414,c),
(140,416,o),
(119,334,o),
(119,226,c)
);
},
{
closed = 1;
nodes = (
(95,-6,o),
(40,95,o),
(40,226,cs),
(40,351,o),
(91,444,o),
(219,444,cs),
(349,444,o),
(399,359,o),
(399,226,cs),
(399,110,o),
(375,-6,o),
(219,-6,cs)
);
}
);
width = 439;
}
);
},
{
glyphname = one.osf;
lastChange = "2025-02-15 15:29:39 +0000";
layers = (
{
layerId = m01;
shapes = (
{
closed = 1;
nodes = (
(183,274,o),
(183,203,o),
(183,104,cs),
(183,23,o),
(154,16,o),
(40,16,c),
(40,0,l),
(109,2,o),
(330,2,o),
(399,0,c),
(399,16,l),
(275,16,o),
(255,23,o),
(255,104,cs),
(255,207,o),
(255,230,o),
(255,267,cs),
(255,371,o),
(258,420,o),
(259,434,c),
(252,443,l),
(53,374,l),
(53,358,l),
(170,382,o),
(183,379,o),
(183,307,cs)
);
}
);
width = 439;
}
);
},
{
glyphname = two.osf;
lastChange = "2025-02-15 15:30:52 +0000";
layers = (
{
layerId = m01;
shapes = (
{
closed = 1;
nodes = (
(40,0,l),
(123,0,o),
(205,1,o),
(288,1,c),
(325,1,o),
(362,0,o),
(399,0,c),
(398,52,o),
(398,80,o),
(399,129,c),
(382,129,l),
(382,73,o),
(360,65,o),
(295,63,cs),
(240,61,o),
(185,61,o),
(130,61,c),
(300,174,o),
(362,233,o),
(362,339,cs),
(362,405,o),
(301,445,o),
(231,446,cs),
(170,446,o),
(103,416,o),
(60,349,c),
(75,327,l),
(109,371,o),
(154,392,o),
(193,392,cs),
(238,393,o),
(274,366,o),
(274,314,cs),
(274,220,o),
(235,175,o),
(40,37,c)
);
}
);
width = 439;
}
);
},
{
glyphname = three.osf;
lastChange = "2025-02-15 13:14:51 +0000";
layers = (
{
layerId = m01;
shapes = (
{
closed = 1;
nodes = (
(56,346,l),
(94,379,o),
(136,389,o),
(178,389,cs),
(237,389,o),
(280,340,o),
(280,285,cs),
(280,215,o),
(222,180,o),
(162,166,cs),
(149,163,o),
(142,162,o),
(133,160,c),
(142,129,l),
(146,130,o),
(152,131,o),
(162,132,cs),
(226,138,o),
(315,91,o),
(315,6,cs),
(315,-60,o),
(285,-129,o),
(178,-129,cs),
(145,-129,o),
(83,-110,o),
(56,-76,c),
(40,-101,l),
(85,-147,o),
(156,-172,o),
(195,-172,cs),
(334,-172,o),
(399,-83,o),
(399,14,cs),
(399,92,o),
(343,144,o),
(256,165,c),
(319,192,o),
(362,240,o),
(362,311,cs),
(362,379,o),
(305,445,o),
(206,445,cs),
(155,445,o),
(88,416,o),
(40,364,c)
);
}
);
width = 439;
}
);
},
{
glyphname = four.osf;
lastChange = "2025-02-15 15:30:19 +0000";
layers = (
{
layerId = m01;
shapes = (
{
closed = 1;
nodes = (
(352,-164,l),
(352,0,l),
(399,0,l),
(399,51,l),
(352,51,l),
(352,433,l),
(353,435,l),
(303,435,l),
(40,37,l),
(40,0,l),
(280,0,l),
(280,-164,l)
);
},
{
closed = 1;
nodes = (
(280,325,l),
(280,51,l),
(99,51,l)
);
}
);
width = 439;
}
);
},
{
glyphname = five.osf;
lastChange = "2025-02-15 15:30:35 +0000";
layers = (
{
layerId = m01;
shapes = (
{
closed = 1;
nodes = (
(132,435,l),
(97,198,l),
(249,198,o),
(312,111,o),
(312,27,cs),
(312,-91,o),
(268,-129,o),
(179,-129,cs),
(146,-129,o),
(84,-110,o),
(56,-76,c),
(40,-101,l),
(85,-147,o),
(146,-171,o),
(206,-172,cs),
(304,-173,o),
(397,-111,o),
(399,23,cs),
(401,135,o),
(315,252,o),
(143,247,c),
(163,374,l),
(233,376,o),
(304,374,o),
(374,373,c),
(376,393,o),
(379,415,o),
(384,435,c),
(347,435,o),
(311,434,o),
(274,434,c),
(240,434,o),
(206,435,o),
(172,435,c)
);
}
);
width = 439;
}
);
},
{
glyphname = six.osf;
lastChange = "2025-02-15 13:23:48 +0000";
layers = (
{
layerId = m01;
shapes = (
{
closed = 1;
nodes = (
(322,286,o),
(285,326,o),
(236,329,cs),
(190,332,o),
(139,303,o),
(111,275,c),
(109,305,l),
(147,358,o),
(202,385,o),
(255,385,cs),
(331,383,o),
(399,323,o),
(399,192,c),
(399,98,o),
(349,-6,o),
(221,-6,cs),
(91,-6,o),
(40,121,o),
(40,311,cs),
(40,492,o),
(135,626,o),
(265,626,cs),
(308,626,o),
(342,612,o),
(369,587,c),
(369,488,l),
(353,488,l),
(353,547,o),
(315,594,o),
(265,594,c),
(188,596,o),
(121,496,o),
(121,311,c),
(121,149,o),
(143,25,o),
(234,25,c),
(281,26,o),
(322,72,o),
(322,168,cs)
);
}
);
width = 439;
}
);
},
{
glyphname = seven.osf;
lastChange = "2025-02-15 13:36:53 +0000";
layers = (
{
layerId = m01;
shapes = (
{
closed = 1;
nodes = (
(399,436,l),
(177,435,l),
(40,436,l),
(42,384,o),
(42,352,o),
(40,303,c),
(57,303,l),
(57,359,o),
(79,368,o),
(144,369,c),
(357,371,l),
(365,395,l),
(399,395,l)
);
},
{
closed = 1;
nodes = (
(40,-154,l),
(80,-178,l),
(399,395,l),
(349,395,l)
);
}
);
width = 439;
}
);
},
{
glyphname = eight.osf;
lastChange = "2025-02-15 13:43:57 +0000";
layers = (
{
layerId = m01;
shapes = (
{
closed = 1;
nodes = (
(377,579,o),
(304,624,o),
(214,624,cs),
(133,624,o),
(62,571,o),
(62,468,cs),
(62,390,o),
(104,345,o),
(154,309,c),
(94,276,o),
(40,238,o),
(40,151,cs),
(40,53,o),
(107,-7,o),
(218,-7,cs),
(313,-7,o),
(399,53,o),
(399,176,cs),
(399,253,o),
(341,297,o),
(279,335,c),
(333,365,o),
(377,403,o),
(377,480,cs)
);
},
{
closed = 1;
nodes = (
(101,225,o),
(139,260,o),
(186,287,c),
(255,244,o),
(321,211,o),
(321,136,cs),
(321,74,o),
(280,33,o),
(213,33,cs),
(151,33,o),
(101,72,o),
(101,158,cs)
);
},
{
closed = 1;
nodes = (
(138,550,o),
(160,585,o),
(237,585,cs),
(269,585,o),
(317,549,o),
(317,492,cs),
(317,425,o),
(285,387,o),
(242,358,c),
(183,394,o),
(136,430,o),
(137,492,cs)
);
}
);
width = 439;
}
);
},
{
glyphname = nine.osf;
lastChange = "2025-02-15 13:44:21 +0000";
layers = (
{
annotations = (
{
pos = (-40.725,292.999);
type = Plus;
}
);
layerId = m01;
shapes = (
{
closed = 1;
nodes = (
(118,153,o),
(154,113,o),
(203,110,cs),
(249,107,o),
(300,136,o),
(328,164,c),
(330,134,l),
(292,81,o),
(237,54,o),
(184,54,cs),
(108,56,o),
(40,116,o),
(40,247,cs),
(40,341,o),
(90,445,o),
(218,445,cs),
(348,445,o),
(399,318,o),
(399,128,cs),
(399,-53,o),
(304,-174,o),
(174,-174,cs),
(131,-174,o),
(97,-160,o),
(70,-135,c),
(70,-36,l),
(86,-36,l),
(86,-95,o),
(124,-142,o),
(174,-142,c),
(262,-142,o),
(317,-57,o),
(317,128,c),
(317,290,o),
(304,414,o),
(205,414,c),
(150,414,o),
(118,367,o),
(118,271,cs)
);
}
);
width = 439;
}
);
},
{
glyphname = period;
lastChange = "2025-02-16 15:09:56 +0000";
layers = (
{
layerId = m01;
shapes = (
{
closed = 1;
nodes = (
(138,-6,o),
(162,18,o),
(162,48,cs),
(162,78,o),
(138,101,o),
(108,101,cs),
(79,101,o),
(54,78,o),
(54,48,cs),
(54,18,o),
(79,-6,o),
(108,-6,cs)
);
}
);
width = 216;
}
);
unicode = 46;
},
{
glyphname = comma;
lastChange = "2025-02-16 15:09:56 +0000";
layers = (
{
layerId = m01;
shapes = (
{
closed = 1;
nodes = (
(52,-143,l),
(122,-139,o),
(187,-89,o),
(187,9,cs),
(187,55,o),
(166,101,o),
(116,101,cs),
(93,101,o),
(68,89,o),
(68,54,cs),
(68,24,o),
(87,13,o),
(108,4,cs),
(126,-4,o),
(135,-13,o),
(135,-33,cs),
(135,-65,o),
(108,-112,o),
(46,-120,c)
);
}
);
width = 241;
}
);
unicode = 44;
},
{
glyphname = colon;
lastChange = "2025-02-16 15:09:56 +0000";
layers = (
{
layerId = m01;
shapes = (
{
closed = 1;
nodes = (
(138,-6,o),
(162,18,o),
(162,48,cs),
(162,78,o),
(138,101,o),
(108,101,cs),
(79,101,o),
(54,78,o),
(54,48,cs),
(54,18,o),
(79,-6,o),
(108,-6,cs)
);
},
{
closed = 1;
nodes = (
(138,286,o),
(162,310,o),
(162,340,cs),
(162,370,o),
(138,393,o),
(108,393,cs),
(79,393,o),
(54,370,o),
(54,340,cs),
(54,310,o),
(79,286,o),
(108,286,cs)
);
}
);
width = 216;
}
);
unicode = 58;
},
{
glyphname = semicolon;
lastChange = "2025-02-16 15:09:56 +0000";
layers = (
{
layerId = m01;
shapes = (
{
closed = 1;
nodes = (
(60,-143,l),
(130,-139,o),
(195,-89,o),
(195,9,cs),
(195,55,o),
(174,101,o),
(124,101,cs),
(101,101,o),
(76,89,o),
(76,54,cs),
(76,24,o),
(95,13,o),
(116,4,cs),
(134,-4,o),
(143,-13,o),
(143,-33,cs),
(143,-65,o),
(116,-112,o),
(54,-120,c)
);
},
{
closed = 1;
nodes = (
(155,286,o),
(179,310,o),
(179,340,cs),
(179,370,o),
(155,393,o),
(125,393,cs),
(96,393,o),
(71,370,o),
(71,340,cs),
(71,310,o),
(96,286,o),
(125,286,cs)
);
}
);
width = 249;
}
);
unicode = 59;
},
{
glyphname = ellipsis;
lastChange = "2025-02-14 18:13:44 +0000";
layers = (
{
layerId = m01;
shapes = (
{
closed = 1;
nodes = (
(192,-6,o),
(216,18,o),
(216,48,cs),
(216,78,o),
(192,101,o),
(162,101,cs),
(133,101,o),
(108,78,o),
(108,48,cs),
(108,18,o),
(133,-6,o),
(162,-6,cs)
);
},
{
closed = 1;
nodes = (
(396,-6,o),
(420,18,o),
(420,48,cs),
(420,78,o),
(396,101,o),
(366,101,cs),
(337,101,o),
(312,78,o),
(312,48,cs),
(312,18,o),
(337,-6,o),
(366,-6,cs)
);
},
{
closed = 1;
nodes = (
(604,-6,o),
(628,18,o),
(628,48,cs),
(628,78,o),
(604,101,o),
(574,101,cs),
(545,101,o),
(520,78,o),
(520,48,cs),
(520,18,o),
(545,-6,o),
(574,-6,cs)
);
}
);
width = 736;
}
);
unicode = 8230;
},
{
glyphname = exclam;
lastChange = "2025-02-16 19:20:38 +0000";
layers = (
{
layerId = m01;
shapes = (
{
closed = 1;
nodes = (
(56,571,o),
(81,418,o),
(91,190,c),
(91,181,o),
(124,181,o),
(124,190,c),
(134,418,o),
(160,568,o),
(155,607,cs),
(152,629,o),
(64,628,o),
(61,607,cs)
);
},
{
closed = 1;
nodes = (
(138,-6,o),
(162,18,o),
(162,48,cs),
(162,78,o),
(138,101,o),
(108,101,cs),
(79,101,o),
(54,78,o),
(54,48,cs),
(54,18,o),
(79,-6,o),
(108,-6,cs)
);
}
);
width = 218;
}
);
unicode = 33;
},
{
glyphname = exclamdown;
lastChange = "2025-02-16 19:22:57 +0000";
layers = (
{
layerId = m01;
shapes = (
{
closed = 1;
nodes = (
(64,-168,o),
(152,-169,o),
(155,-147,cs),
(160,-108,o),
(134,42,o),
(124,270,c),
(124,279,o),
(91,279,o),
(91,270,c),
(81,42,o),
(56,-111,o),
(61,-147,cs)
);
},
{
closed = 1;
nodes = (
(79,467,o),
(54,442,o),
(54,412,cs),
(54,382,o),
(79,357,o),
(109,357,cs),
(139,357,o),
(164,382,o),
(164,412,cs),
(164,442,o),
(139,467,o),
(109,467,cs)
);
}
);
width = 218;
}
);
unicode = 161;
},
{
glyphname = question;
lastChange = "2025-02-16 19:22:25 +0000";
layers = (
{
layerId = m01;
shapes = (
{
closed = 1;
nodes = (
(223,204,l),
(198,226,o),
(181,247,o),
(179,270,cs),
(168,355,o),
(329,372,o),
(329,480,cs),
(327,551,o),
(263,625,o),
(183,625,cs),
(124,625,o),
(72,582,o),
(72,563,cs),
(72,537,o),
(91,516,o),
(108,516,cs),
(129,516,o),
(124,537,o),
(175,557,cs),
(217,573,o),
(262,572,o),
(271,531,cs),
(288,436,o),
(96,407,o),
(105,291,cs),
(112,242,o),
(154,205,o),
(204,182,c)
);
},
{
closed = 1;
nodes = (
(218,-6,o),
(242,18,o),
(242,48,cs),
(242,78,o),
(218,101,o),
(188,101,cs),
(159,101,o),
(134,78,o),
(134,48,cs),
(134,18,o),
(159,-6,o),
(188,-6,cs)
);
}
);
width = 383;
}
);
unicode = 63;
},
{
glyphname = questiondown;
lastChange = "2025-02-16 19:24:09 +0000";
layers = (
{
layerId = m01;
shapes = (
{
closed = 1;
nodes = (
(160,257,l),
(185,235,o),
(202,214,o),
(204,191,cs),
(215,106,o),
(54,89,o),
(54,-19,cs),
(56,-90,o),
(120,-164,o),
(200,-164,cs),
(259,-164,o),
(311,-121,o),
(311,-102,cs),
(311,-76,o),
(292,-55,o),
(275,-55,cs),
(254,-55,o),
(259,-76,o),
(208,-96,cs),
(166,-112,o),
(121,-111,o),
(112,-70,cs),
(95,25,o),
(287,54,o),
(278,170,cs),
(271,219,o),
(229,256,o),
(179,279,c)
);
},
{
closed = 1;
nodes = (
(165,467,o),
(141,443,o),
(141,413,cs),
(141,383,o),
(165,360,o),
(195,360,cs),
(224,360,o),
(249,383,o),
(249,413,cs),
(249,443,o),
(224,467,o),
(195,467,cs)
);
}
);
width = 383;
}
);
unicode = 191;
},
{
glyphname = bullet;
lastChange = "2025-02-16 19:25:12 +0000";
layers = (
{
layerId = m01;
shapes = (
{
closed = 1;
nodes = (
(286,102,o),
(357,173,o),
(357,261,cs),
(357,350,o),
(286,420,o),
(198,420,cs),
(109,420,o),
(39,350,o),
(39,261,cs),
(39,173,o),
(109,102,o),
(198,102,cs)
);
}
);
width = 396;
}
);
unicode = 8226;
},
{
glyphname = asterisk;
lastChange = "2025-02-17 12:07:33 +0000";
layers = (
{
layerId = m01;
shapes = (
{
closed = 1;
nodes = (
(159,513,l),
(171,513,l),
(198,616,l),
(133,616,l)
);
},
{
closed = 1;
nodes = (
(155,502,l),
(159,513,l),
(69,569,l),
(49,508,l)
);
},
{
closed = 1;
nodes = (
(164,494,l),
(156,501,l),
(74,433,l),
(126,395,l)
);
},
{
closed = 1;
nodes = (
(174,501,l),
(165,494,l),
(204,394,l),
(257,433,l)
);
},
{
closed = 1;
nodes = (
(171,513,l),
(174,502,l),
(280,508,l),
(261,569,l)
);
}
);
width = 329;
}
);
unicode = 42;
},
{
glyphname = numbersign;
lastChange = "2025-02-17 11:56:16 +0000";
layers = (
{
layerId = m01;
shapes = (
{
closed = 1;
nodes = (
(10,231,l),
(0,191,l),
(116,191,l),
(69,0,l),
(107,0,l),
(154,191,l),
(303,191,l),
(256,0,l),
(294,0,l),
(341,191,l),
(466,191,l),
(476,231,l),
(351,231,l),
(386,374,l),
(490,374,l),
(500,414,l),
(395,414,l),
(445,616,l),
(407,616,l),
(357,414,l),
(208,414,l),
(258,616,l),
(220,616,l),
(170,414,l),
(34,414,l),
(24,374,l),
(161,374,l),
(126,231,l)
);
},
{
closed = 1;
nodes = (
(164,231,l),
(199,374,l),
(348,374,l),
(313,231,l)
);
}
);
width = 580;
}
);
unicode = 35;
},
{
glyphname = slash;
lastChange = "2025-02-16 19:05:12 +0000";
layers = (
{
layerId = m01;
shapes = (
{
closed = 1;
nodes = (
(36,-162,l),
(89,-162,l),
(360,694,l),
(307,694,l)
);
}
);
width = 396;
}
);
unicode = 47;
},
{
glyphname = backslash;
lastChange = "2025-02-16 19:05:29 +0000";
layers = (
{
layerId = m01;
shapes = (
{
closed = 1;
nodes = (
(295,-102,l),
(342,-85,l),
(84,751,l),
(36,736,l)
);
}
);
width = 378;
}
);
unicode = 92;
},
{
glyphname = hyphen;
lastChange = "2025-02-16 20:53:57 +0000";
layers = (
{
layerId = m01;
shapes = (
{
closed = 1;
nodes = (
(36,190,l),
(288,190,l),
(288,246,l),
(36,246,l)
);
}
);
width = 324;
}
);
unicode = 45;
},
{
glyphname = endash;
lastChange = "2025-02-16 20:55:32 +0000";
layers = (
{
layerId = m01;
shapes = (
{
closed = 1;
nodes = (
(0,190,l),
(486,190,l),
(486,246,l),
(0,246,l)
);
}
);
width = 486;
}
);
unicode = 8211;
},
{
glyphname = emdash;
lastChange = "2025-02-16 20:56:36 +0000";
layers = (
{
layerId = m01;
shapes = (
{
closed = 1;
nodes = (
(0,197,l),
(702,197,l),
(702,245,l),
(0,245,l)
);
}
);
width = 702;
}
);
unicode = 8212;
},
{
glyphname = underscore;
lastChange = "2025-02-16 20:57:02 +0000";
layers = (
{
layerId = m01;
shapes = (
{
closed = 1;
nodes = (
(0,-50,l),
(0,-90,l),
(594,-90,l),
(594,-50,l)
);
}
);
width = 594;
}
);
unicode = 95;
},
{
glyphname = parenleft;
lastChange = "2025-02-16 22:22:02 +0000";
layers = (
{
layerId = m01;
shapes = (
{
closed = 1;
nodes = (
(129,437,o),
(183,607,o),
(247,692,c),
(233,720,l),
(140,634,o),
(72,452,o),
(72,281,cs),
(72,110,o),
(140,-72,o),
(233,-158,c),
(247,-130,l),
(183,-45,o),
(129,125,o),
(129,281,cs)
);
}
);
width = 265;
}
);
unicode = 40;
},
{
glyphname = parenright;
lastChange = "2025-02-16 22:21:46 +0000";
layers = (
{
layerId = m01;
shapes = (
{
closed = 1;
nodes = (
(136,125,o),
(82,-45,o),
(18,-130,c),
(32,-158,l),
(125,-72,o),
(193,110,o),
(193,281,cs),
(193,452,o),
(125,634,o),
(32,720,c),
(18,692,l),
(82,607,o),
(136,437,o),
(136,281,cs)
);
}
);
width = 265;
}
);
unicode = 41;
},
{
glyphname = braceleft;
lastChange = "2025-02-16 22:26:05 +0000";
layers = (
{
layerId = m01;
shapes = (
{
closed = 1;
nodes = (
(312,-120,l),
(256,-120,o),
(214,-70,o),
(214,-16,cs),
(214,157,ls),
(214,201,o),
(179,252,o),
(130,279,c),
(179,306,o),
(214,357,o),
(214,401,cs),
(214,574,ls),
(214,628,o),
(256,678,o),
(312,678,c),
(312,702,l),
(128,702,o),
(157,561,o),
(157,385,cs),
(157,329,o),
(124,286,o),
(54,286,c),
(54,272,l),
(124,272,o),
(157,229,o),
(157,173,cs),
(157,-40,o),
(141,-144,o),
(312,-144,c)
);
}
);
width = 348;
}
);
unicode = 123;
},
{
glyphname = braceright;
lastChange = "2025-02-16 22:26:27 +0000";
layers = (
{
layerId = m01;
shapes = (
{
closed = 1;
nodes = (
(207,-144,o),
(191,-40,o),
(191,173,cs),
(191,229,o),
(224,272,o),
(294,272,c),
(294,286,l),
(224,286,o),
(191,329,o),
(191,385,cs),
(191,561,o),
(220,702,o),
(36,702,c),
(36,678,l),
(92,678,o),
(134,628,o),
(134,574,cs),
(134,401,ls),
(134,357,o),
(169,306,o),
(218,279,c),
(169,252,o),
(134,201,o),
(134,157,cs),
(134,-16,ls),
(134,-70,o),
(92,-120,o),
(36,-120,c),
(36,-144,l)
);
}
);
width = 348;
}
);
unicode = 125;
},
{
glyphname = bracketleft;
lastChange = "2025-02-16 22:17:55 +0000";
layers = (
{
layerId = m01;
shapes = (
{
closed = 1;
nodes = (
(161,646,l),
(288,646,l),
(288,692,l),
(97,692,l),
(99,416,o),
(99,140,o),
(97,-136,c),
(288,-136,l),
(288,-90,l),
(161,-90,l)
);
}
);
width = 306;
}
);
unicode = 91;
},
{
glyphname = bracketright;
lastChange = "2025-02-16 22:18:36 +0000";
layers = (
{
layerId = m01;
shapes = (
{
closed = 1;
nodes = (
(18,-90,l),
(18,-136,l),
(209,-136,l),
(207,140,o),
(207,416,o),
(209,692,c),
(18,692,l),
(18,646,l),
(145,646,l),
(145,-90,l)
);
}
);
width = 306;
}
);
unicode = 93;
},
{
glyphname = guillemetleft;
lastChange = "2025-02-16 19:39:44 +0000";
layers = (
{
anchors = (
{
name = _top;
pos = (323,202);
}
);
layerId = m01;
shapes = (
{
closed = 1;
nodes = (
(222,342,l),
(58,216,l),
(215,69,l),
(247,93,l),
(152,216,l),
(253,313,l)
);
},
{
closed = 1;
nodes = (
(405,342,l),
(241,216,l),
(398,69,l),
(430,93,l),
(335,216,l),
(436,313,l)
);
}
);
width = 498;
}
);
unicode = 171;
},
{
glyphname = guillemetright;
lastChange = "2025-02-16 19:40:24 +0000";
layers = (
{
layerId = m01;
shapes = (
{
closed = 1;
nodes = (
(346,216,l),
(251,93,l),
(283,69,l),
(440,216,l),
(276,342,l),
(245,313,l)
);
},
{
closed = 1;
nodes = (
(163,216,l),
(68,93,l),
(100,69,l),
(257,216,l),
(93,342,l),
(62,313,l)
);
}
);
width = 498;
}
);
unicode = 187;
},
{
glyphname = guilsinglleft;
lastChange = "2025-02-16 19:40:51 +0000";
layers = (
{
layerId = m01;
shapes = (
{
closed = 1;
nodes = (
(200,342,l),
(36,216,l),
(193,69,l),
(225,93,l),
(130,216,l),
(231,313,l)
);
}
);
width = 285;
}
);
unicode = 8249;
},
{
glyphname = guilsinglright;
lastChange = "2025-02-16 19:41:08 +0000";
layers = (
{
layerId = m01;
shapes = (
{
closed = 1;
nodes = (
(155,216,l),
(60,93,l),
(92,69,l),
(249,216,l),
(85,342,l),
(54,313,l)
);
}
);
width = 285;
}
);
unicode = 8250;
},
{
glyphname = dollar;
lastChange = "2025-02-15 15:32:10 +0000";
layers = (
{
layerId = m01;
shapes = (
{
closed = 1;
nodes = (
(93,7,o),
(150,-7,o),
(203,-8,c),
(203,-104,l),
(246,-104,l),
(246,-7,l),
(342,6,o),
(418,68,o),
(418,176,cs),
(418,264,o),
(329,311,o),
(246,354,c),
(246,589,l),
(305,580,o),
(361,531,o),
(361,453,c),
(385,453,l),
(384,500,o),
(384,546,o),
(385,593,c),
(337,611,o),
(290,621,o),
(246,624,c),
(246,733,l),
(203,733,l),
(203,623,l),
(108,617,o),
(40,564,o),
(40,446,cs),
(40,355,o),
(123,314,o),
(203,275,c),
(203,26,l),
(134,30,o),
(66,84,o),
(66,197,c),
(42,197,l),
(43,143,o),
(43,90,o),
(42,36,c)
);
},
{
closed = 1;
nodes = (
(109,544,o),
(153,580,o),
(203,588,c),
(203,376,l),
(149,407,o),
(107,441,o),
(108,492,cs)
);
},
{
closed = 1;
nodes = (
(246,256,l),
(302,227,o),
(347,191,o),
(347,136,cs),
(347,86,o),
(300,42,o),
(246,28,c)
);
}
);
width = 458;
}
);
unicode = 36;
},
{
glyphname = euro;
lastChange = "2025-02-17 13:38:21 +0000";
layers = (
{
layerId = m01;
shapes = (
{
closed = 1;
nodes = (
(317,290,l),
(317,243,l),
(40,243,l),
(49,290,l)
);
},
{
closed = 1;
nodes = (
(317,394,l),
(317,347,l),
(40,347,l),
(49,394,l)
);
},
{
closed = 1;
nodes = (
(437,408,l),
(437,526,o),
(382,588,o),
(311,589,cs),
(229,590,o),
(159,506,o),
(159,324,c),
(160,128,o),
(236,31,o),
(321,34,cs),
(387,31,o),
(437,92,o),
(437,211,c),
(462,211,l),
(461,166,o),
(461,120,o),
(462,75,c),
(428,28,o),
(358,-6,o),
(300,-6,cs),
(175,-6,o),
(73,121,o),
(73,308,cs),
(73,492,o),
(177,626,o),
(301,626,cs),
(368,626,o),
(430,592,o),
(462,559,c),
(461,509,o),
(461,458,o),
(462,408,c)
);
}
);
width = 502;
}
);
unicode = 8364;
},
{
glyphname = plus;
lastChange = "2025-02-17 07:09:42 +0000";
layers = (
{
layerId = m01;
shapes = (
{
closed = 1;
nodes = (
(271,28,l),
(321,28,l),
(321,256,l),
(540,256,l),
(540,306,l),
(321,306,l),
(321,528,l),
(271,528,l),
(271,306,l),
(54,306,l),
(54,256,l),
(271,256,l)
);
}
);
width = 594;
}
);
unicode = 43;
},
{
glyphname = minus;
lastChange = "2025-02-17 07:06:48 +0000";
layers = (
{
layerId = m01;
shapes = (
{
closed = 1;
nodes = (
(54,256,l),
(540,256,l),
(540,306,l),
(54,306,l)
);
}
);
width = 594;
}
);
unicode = 8722;
},
{
glyphname = multiply;
lastChange = "2025-02-17 07:06:28 +0000";
layers = (
{
layerId = m01;
shapes = (
{
closed = 1;
nodes = (
(114,93,l),
(295,242,l),
(482,89,l),
(522,128,l),
(335,281,l),
(519,431,l),
(479,470,l),
(296,321,l),
(111,472,l),
(72,432,l),
(256,281,l),
(74,132,l)
);
}
);
width = 594;
}
);
unicode = 215;
},
{
glyphname = divide;
lastChange = "2025-02-17 07:11:52 +0000";
layers = (
{
layerId = m01;
shapes = (
{
closed = 1;
nodes = (
(54,256,l),
(540,256,l),
(540,306,l),
(54,306,l)
);
},
{
closed = 1;
nodes = (
(319,397,o),
(342,420,o),
(342,449,cs),
(342,477,o),
(319,500,o),
(291,500,cs),
(262,500,o),
(239,477,o),
(239,449,cs),
(239,420,o),
(262,397,o),
(291,397,cs)
);
},
{
closed = 1;
nodes = (
(319,56,o),
(342,79,o),
(342,108,cs),
(342,136,o),
(319,159,o),
(291,159,cs),
(262,159,o),
(239,136,o),
(239,108,cs),
(239,79,o),
(262,56,o),
(291,56,cs)
);
}
);
width = 594;
}
);
unicode = 247;
},
{
glyphname = equal;
lastChange = "2025-02-17 07:06:04 +0000";
layers = (
{
layerId = m01;
shapes = (
{
closed = 1;
nodes = (
(54,323,l),
(540,323,l),
(540,373,l),
(54,373,l)
);
},
{
closed = 1;
nodes = (
(54,193,l),
(540,193,l),
(540,243,l),
(54,243,l)
);
}
);
width = 594;
}
);
unicode = 61;
},
{
glyphname = notequal;
lastChange = "2025-02-17 07:10:07 +0000";
layers = (
{
layerId = m01;
shapes = (
{
closed = 1;
nodes = (
(121,105,l),
(179,163,l),
(540,163,l),
(540,213,l),
(249,213,l),
(406,348,l),
(540,348,l),
(540,398,l),
(476,398,l),
(501,423,l),
(471,452,l),
(417,398,l),
(54,398,l),
(54,348,l),
(347,348,l),
(190,213,l),
(54,213,l),
(54,163,l),
(120,163,l),
(92,135,l)
);
}
);
width = 594;
}
);
unicode = 8800;
},
{
glyphname = greater;
lastChange = "2025-02-17 07:07:54 +0000";
layers = (
{
layerId = m01;
shapes = (
{
closed = 1;
nodes = (
(77,65,l),
(540,247,l),
(540,310,l),
(76,494,l),
(55,448,l),
(494,278,l),
(54,110,l)
);
}
);
width = 594;
}
);
unicode = 62;
},
{
glyphname = less;
lastChange = "2025-02-17 07:08:43 +0000";
layers = (
{
layerId = m01;
shapes = (
{
closed = 1;
nodes = (
(517,65,l),
(540,110,l),
(100,278,l),
(539,448,l),
(518,494,l),
(54,310,l),
(54,247,l)
);
}
);
width = 594;
}
);
unicode = 60;
},
{
glyphname = greaterequal;
lastChange = "2025-02-17 07:08:11 +0000";
layers = (
{
layerId = m01;
shapes = (
{
closed = 1;
nodes = (
(77,142,l),
(540,308,l),
(540,371,l),
(76,539,l),
(55,493,l),
(494,339,l),
(54,187,l)
);
},
{
closed = 1;
nodes = (
(61,41,l),
(540,41,l),
(540,91,l),
(61,91,l)
);
}
);
width = 594;
}
);
unicode = 8805;
},
{
glyphname = lessequal;
lastChange = "2025-02-17 07:08:59 +0000";
layers = (
{
layerId = m01;
shapes = (
{
closed = 1;
nodes = (
(517,142,l),
(540,187,l),
(100,339,l),
(539,493,l),
(518,539,l),
(54,371,l),
(54,308,l)
);
},
{
closed = 1;
nodes = (
(533,41,l),
(533,91,l),
(54,91,l),
(54,41,l)
);
}
);
width = 594;
}
);
unicode = 8804;
},
{
glyphname = plusminus;
lastChange = "2025-02-17 07:09:28 +0000";
layers = (
{
layerId = m01;
shapes = (
{
closed = 1;
nodes = (
(271,172,l),
(321,172,l),
(321,327,l),
(540,327,l),
(540,377,l),
(321,377,l),
(321,528,l),
(271,528,l),
(271,377,l),
(54,377,l),
(54,327,l),
(271,327,l)
);
},
{
closed = 1;
nodes = (
(59,41,l),
(535,41,l),
(535,91,l),
(59,91,l)
);
}
);
width = 594;
}
);
unicode = 177;
},
{
glyphname = percent;
lastChange = "2025-02-17 07:22:45 +0000";
layers = (
{
layerId = m01;
shapes = (
{
closed = 1;
nodes = (
(100,368,o),
(112,318,o),
(157,318,c),
(203,318,o),
(215,364,o),
(215,432,c),
(215,495,o),
(203,541,o),
(157,541,c),
(112,542,o),
(100,495,o),
(100,432,c)
);
},
{
closed = 1;
nodes = (
(86,299,o),
(54,357,o),
(54,432,cs),
(54,504,o),
(83,558,o),
(157,558,cs),
(232,558,o),
(261,509,o),
(261,432,cs),
(261,365,o),
(247,299,o),
(157,299,cs)
);
},
{
closed = 1;
nodes = (
(379,64,o),
(391,14,o),
(436,14,c),
(482,14,o),
(494,60,o),
(494,128,c),
(494,191,o),
(482,237,o),
(436,237,c),
(391,238,o),
(379,191,o),
(379,128,c)
);
},
{
closed = 1;
nodes = (
(365,-5,o),
(333,53,o),
(333,128,cs),
(333,200,o),
(362,254,o),
(436,254,cs),
(511,254,o),
(540,205,o),
(540,128,cs),
(540,61,o),
(526,-5,o),
(436,-5,cs)
);
},
{
closed = 1;
nodes = (
(76,11,l),
(105,-6,l),
(483,532,l),
(454,552,l)
);
}
);
width = 594;
}
);
unicode = 37;
},
{
glyphname = dieresis;
lastChange = "2025-02-16 17:55:06 +0000";
layers = (
{
layerId = m01;
shapes = (
{
closed = 1;
nodes = (
(130,484,o),
(150,504,o),
(150,529,cs),
(150,554,o),
(130,574,o),
(105,574,cs),
(80,574,o),
(60,554,o),
(60,529,cs),
(60,504,o),
(80,484,o),
(105,484,cs)
);
},
{
closed = 1;
nodes = (
(291,484,o),
(311,504,o),
(311,529,cs),
(311,554,o),
(291,574,o),
(266,574,cs),
(241,574,o),
(221,554,o),
(221,529,cs),
(221,504,o),
(241,484,o),
(266,484,cs)
);
}
);
width = 310;
}
);
unicode = 168;
},
{
glyphname = grave;
lastChange = "2025-02-17 12:39:19 +0000";
layers = (
{
layerId = m01;
shapes = (
{
closed = 1;
nodes = (
(-10,607,l),
(78,607,l),
(155,448,l),
(110,448,l)
);
}
);
width = 165;
}
);
unicode = 96;
},
{
glyphname = acute;
lastChange = "2025-02-17 12:40:00 +0000";
layers = (
{
layerId = m01;
shapes = (
{
closed = 1;
nodes = (
(28,448,l),
(105,607,l),
(193,607,l),
(73,448,l)
);
}
);
width = 239;
}
);
unicode = 180;
},
{
glyphname = circumflex;
lastChange = "2025-02-17 12:40:37 +0000";
layers = (
{
background = {
shapes = (
{
closed = 1;
nodes = (
(87,448,l),
(150,607,l),
(209,607,l),
(117,448,l)
);
},
{
closed = 1;
nodes = (
(150,607,l),
(209,607,l),
(272,448,l),
(242,448,l)
);
}
);
};
layerId = m01;
shapes = (
{
closed = 1;
nodes = (
(82,450,l),
(146,608,l),
(212,608,l),
(275,450,l),
(241,450,l),
(179,557,l),
(116,450,l)
);
}
);
width = 300;
}
);
unicode = 710;
},
{
glyphname = ring;
lastChange = "2025-02-16 18:48:05 +0000";
layers = (
{
layerId = m01;
shapes = (
{
closed = 1;
nodes = (
(230,445,o),
(270,485,o),
(270,535,cs),
(270,584,o),
(230,624,o),
(181,624,cs),
(131,624,o),
(91,584,o),
(91,535,cs),
(91,485,o),
(131,445,o),
(181,445,cs)
);
},
{
closed = 1;
nodes = (
(149,475,o),
(121,503,o),
(121,536,cs),
(121,568,o),
(149,595,o),
(182,595,cs),
(214,595,o),
(241,568,o),
(241,536,cs),
(241,503,o),
(214,475,o),
(182,475,cs)
);
}
);
width = 300;
}
);
unicode = 730;
},
{
glyphname = tilde;
lastChange = "2025-02-16 17:42:13 +0000";
layers = (
{
layerId = m01;
shapes = (
{
closed = 1;
nodes = (
(101,500,l),
(124,518,o),
(135,530,o),
(161,530,c),
(201,530,o),
(218,500,o),
(284,500,c),
(311,500,o),
(354,534,o),
(373,566,c),
(364,580,l),
(342,567,o),
(332,551,o),
(284,551,c),
(248,551,o),
(238,578,o),
(171,580,c),
(140,578,o),
(104,543,o),
(86,513,c)
);
}
);
width = 324;
}
);
unicode = 732;
},
{
glyphname = cedilla;
lastChange = "2025-02-16 19:55:49 +0000";
layers = (
{
layerId = m01;
shapes = (
{
closed = 1;
nodes = (
(160,-61,l),
(197,-61,o),
(258,-71,o),
(258,-127,cs),
(258,-178,o),
(207,-195,o),
(163,-195,cs),
(139,-195,o),
(89,-193,o),
(49,-172,c),
(51,-162,o),
(56,-152,o),
(62,-144,c),
(116,-175,o),
(201,-187,o),
(201,-130,cs),
(201,-79,o),
(137,-89,o),
(120,-93,c),
(148,5,l),
(179,5,l)
);
}
);
width = 300;
}
);
unicode = 184;
},
{
glyphname = CAPITALSERIF;
lastChange = "2025-02-15 15:04:20 +0000";
layers = (
{
layerId = m01;
shapes = (
{
closed = 1;
nodes = (
(229,0,l),
(229,23,l),
(167,23,o),
(161,49,o),
(161,111,c),
(88,111,l),
(88,49,o),
(82,23,o),
(20,23,c),
(20,0,l)
);
}
);
width = 249;
}
);
},
{
export = 0;
glyphname = _i_punto;
lastChange = "2024-11-23 19:30:44 +0000";
layers = (
{
layerId = m01;
shapes = (
{
closed = 1;
nodes = (
(149,518,o),
(171,541,o),
(171,569,cs),
(171,597,o),
(149,619,o),
(121,619,cs),
(93,619,o),
(70,597,o),
(70,569,cs),
(70,541,o),
(93,518,o),
(121,518,cs)
);
}
);
width = 245;
}
);
},
{
export = 0;
glyphname = _serif_i_button;
lastChange = "2025-02-15 13:51:55 +0000";
layers = (
{
layerId = m01;
shapes = (
{
closed = 1;
nodes = (
(88,2,o),
(157,2,o),
(226,0,c),
(226,16,l),
(164,16,o),
(158,42,o),
(158,104,c),
(86,104,l),
(86,43,o),
(80,16,o),
(19,16,c),
(19,0,l)
);
}
);
width = 245;
}
);
},
{
export = 0;
glyphname = _serif_i_top;
lastChange = "2025-02-15 13:49:33 +0000";
layers = (
{
layerId = m01;
shapes = (
{
closed = 1;
nodes = (
(18,341,l),
(74,341,o),
(86,319,o),
(86,254,c),
(158,254,l),
(158,391,l),
(109,383,o),
(65,371,o),
(18,357,c)
);
}
